<?xml version="1.0" encoding="UTF-8"?>
<svg version="1.1" xmlns="http://www.w3.org/2000/svg" width="510" height="398">
<path d="M0 0 C10.28075014 3.75328973 19.50434816 9.23101971 28.25390625 15.78515625 C28.25390625 16.44515625 28.25390625 17.10515625 28.25390625 17.78515625 C28.846875 17.86636719 29.43984375 17.94757812 30.05078125 18.03125 C32.92948574 19.01633859 33.77853011 20.37723132 35.50390625 22.84765625 C36.0246875 23.58113281 36.54546875 24.31460938 37.08203125 25.0703125 C37.46875 25.63621094 37.85546875 26.20210937 38.25390625 26.78515625 C38.9809375 26.60339844 39.70796875 26.42164062 40.45703125 26.234375 C42.57498577 25.70488637 44.69351936 25.17771085 46.8125 24.65234375 C49.03827478 24.09147882 51.26005621 23.51441044 53.4765625 22.91796875 C58.89200632 21.4802403 63.6460962 20.40280556 69.25390625 20.78515625 C70.40799191 23.09332756 70.59860144 24.88465492 70.90234375 27.44897461 C71.01917511 28.4235965 71.13600647 29.39821838 71.25637817 30.40237427 C71.37931244 31.46584076 71.5022467 32.52930725 71.62890625 33.625 C71.75820526 34.72713837 71.88750427 35.82927673 72.02072144 36.96481323 C72.43779492 40.55009729 72.84688168 44.13621816 73.25390625 47.72265625 C73.46083099 49.53218277 73.46083099 49.53218277 73.67193604 51.37826538 C75.61786909 68.51327904 77.28994162 85.52164061 77.25390625 102.78515625 C78.44371094 102.58148438 79.63351563 102.3778125 80.859375 102.16796875 C88.44403704 101.2371921 95.12883326 104.6898465 101.32421875 108.84375 C107.90228992 114.01479505 114.07937707 119.30726376 116.25390625 127.59765625 C116.25390625 130.78515625 116.25390625 130.78515625 114.25390625 133.78515625 C113.26390625 133.78515625 112.27390625 133.78515625 111.25390625 133.78515625 C110.90328125 132.79515625 110.55265625 131.80515625 110.19140625 130.78515625 C105.77937846 120.67425923 97.07922246 115.42460175 87.44140625 110.91015625 C84.38593033 109.83175299 82.43391455 109.68797433 79.25390625 109.78515625 C79.84816406 109.92050781 80.44242188 110.05585938 81.0546875 110.1953125 C92.95934501 113.28719089 103.05909581 120.14941028 109.46875 130.8046875 C110.25390625 132.78515625 110.25390625 132.78515625 110.25390625 136.78515625 C99.7357262 137.5501148 92.6214073 132.66593008 84.25390625 126.78515625 C83.26390625 126.12515625 82.27390625 125.46515625 81.25390625 124.78515625 C80.86203125 125.52765625 80.47015625 126.27015625 80.06640625 127.03515625 C78.09974444 130.01905693 76.0897997 131.64094413 73.25390625 133.78515625 C72.61453125 134.42453125 71.97515625 135.06390625 71.31640625 135.72265625 C68.75188223 138.28718027 66.1120889 140.54831765 63.25390625 142.78515625 C62.59390625 142.78515625 61.93390625 142.78515625 61.25390625 142.78515625 C61.25390625 143.44515625 61.25390625 144.10515625 61.25390625 144.78515625 C56.78331801 148.78515625 56.78331801 148.78515625 54.25390625 148.78515625 C54.25390625 149.44515625 54.25390625 150.10515625 54.25390625 150.78515625 C52.68103941 152.19954031 51.04250629 153.54120026 49.37890625 154.84765625 C44.47492447 158.75561586 39.83056795 162.8454009 35.25 167.1328125 C33.25390625 168.78515625 33.25390625 168.78515625 31.25390625 168.78515625 C32.07575113 170.97181993 32.07575113 170.97181993 34.30078125 171.64453125 C35.1928125 171.9384375 36.08484375 172.23234375 37.00390625 172.53515625 C41.34418137 174.04359812 45.47553342 175.75713066 49.62890625 177.72265625 C56.05536158 180.74911267 62.60688822 183.2904103 69.25390625 185.78515625 C74.11341301 187.650491 78.95178826 189.56828444 83.69140625 191.72265625 C84.30886719 191.99980469 84.92632812 192.27695313 85.5625 192.5625 C87.87802404 194.23630837 88.91376422 196.297492 90.25390625 198.78515625 C90.78757813 198.20507812 91.32125 197.625 91.87109375 197.02734375 C97.02576391 191.62296638 102.2310638 186.61750924 109.25390625 183.78515625 C113.19140625 183.91015625 113.19140625 183.91015625 116.25390625 184.78515625 C117.24390625 184.78515625 118.23390625 184.78515625 119.25390625 184.78515625 C119.58390625 184.12515625 119.91390625 183.46515625 120.25390625 182.78515625 C119.32578125 182.49640625 118.39765625 182.20765625 117.44140625 181.91015625 C114.25390625 180.78515625 114.25390625 180.78515625 111.25390625 178.78515625 C111.25390625 178.12515625 111.25390625 177.46515625 111.25390625 176.78515625 C116.19696645 177.27946227 120.00366819 178.1540565 124.25390625 180.78515625 C125.57368291 184.74448623 124.55215159 186.20903272 123.00390625 190.03515625 C122.565625 191.1334375 122.12734375 192.23171875 121.67578125 193.36328125 C119.10499412 199.55012061 116.41602577 205.66052204 113.56640625 211.72265625 C113.24607422 212.40650391 112.92574219 213.09035156 112.59570312 213.79492188 C111.81611946 215.45880941 111.03515874 217.12205163 110.25390625 218.78515625 C109.12082031 218.46417969 109.12082031 218.46417969 107.96484375 218.13671875 C105.32110354 217.52486766 105.32110354 217.52486766 103.48046875 218.74609375 C102.95195312 219.21273437 102.4234375 219.679375 101.87890625 220.16015625 C98.31287206 222.98947129 95.75877902 223.50934771 91.25390625 223.78515625 C91.40931885 224.59879639 91.56473145 225.41243652 91.72485352 226.25073242 C92.32934462 230.28913469 92.54336526 234.26062176 92.71875 238.3359375 C93.22444952 248.89743875 94.00402403 259.43100688 94.81640625 269.97265625 C94.9565822 271.81313567 95.09655699 273.65363042 95.23632812 275.49414062 C95.57321603 279.92465829 95.91277657 284.35496325 96.25390625 288.78515625 C93.11434411 290.35493732 89.94758077 289.45859098 86.56640625 289.03515625 C85.81560791 288.94443848 85.06480957 288.8537207 84.29125977 288.76025391 C76.86250715 287.81694499 69.56793928 286.38210669 62.25390625 284.78515625 C62.11815186 285.45571045 61.98239746 286.12626465 61.8425293 286.81713867 C61.21854229 289.87105729 60.58013045 292.92178739 59.94140625 295.97265625 C59.72806641 297.02775391 59.51472656 298.08285156 59.29492188 299.16992188 C59.07900391 300.19150391 58.86308594 301.21308594 58.640625 302.265625 C58.34998169 303.67171021 58.34998169 303.67171021 58.0534668 305.10620117 C56.62513426 309.89187839 54.99683085 312.62768412 50.60571289 315.06884766 C46.22857749 317.0522576 42.37782939 317.33764298 37.625 317.24609375 C36.83166763 317.24517731 36.03833527 317.24426086 35.22096252 317.24331665 C33.55618243 317.23731604 31.89141132 317.2216777 30.22680664 317.19677734 C27.6944147 317.1601997 25.1634885 317.15575923 22.63085938 317.15625 C21.00389375 317.14641879 19.37693792 317.13476176 17.75 317.12109375 C17.0018956 317.1188681 16.2537912 317.11664246 15.48301697 317.11434937 C10.29453672 317.02168161 4.77776173 316.71483051 0.51171875 313.453125 C-3.85599932 307.74496931 -4.0354501 301.85220857 -4.8671875 294.93359375 C-5.08261545 293.17707513 -5.29811248 291.42056499 -5.51367188 289.6640625 C-5.8482407 286.91957172 -6.18180195 284.17496472 -6.51391602 281.43017578 C-7.13943545 276.27231854 -7.78675583 271.11825589 -8.46743774 265.96737671 C-8.71095257 264.06035506 -8.92116799 262.14914095 -9.12573242 260.23754883 C-9.89492361 254.3097751 -9.89492361 254.3097751 -13.6171875 249.875 C-14.78654305 249.12627475 -15.97679402 248.40939952 -17.18359375 247.72265625 C-18.45700329 246.90837722 -19.7264917 246.08793684 -20.9921875 245.26171875 C-21.62495605 244.85598633 -22.25772461 244.45025391 -22.90966797 244.03222656 C-30.15489391 239.11217683 -36.25168841 232.54750128 -41.74609375 225.78515625 C-42.73609375 224.79515625 -42.73609375 224.79515625 -43.74609375 223.78515625 C-45.24233356 221.65346519 -46.65833926 219.47510228 -48.0859375 217.296875 C-49.18159365 215.6392117 -50.29853964 213.99540103 -51.4375 212.3671875 C-51.97246094 211.59761719 -52.50742188 210.82804688 -53.05859375 210.03515625 C-53.54972656 209.3390625 -54.04085937 208.64296875 -54.546875 207.92578125 C-55.88011002 205.54593503 -56.34713751 203.46989707 -56.74609375 200.78515625 C-57.64457031 200.66785156 -58.54304688 200.55054688 -59.46875 200.4296875 C-65.07325843 199.62501707 -70.62554409 198.54640748 -76.18359375 197.47265625 C-77.27736328 197.27220703 -78.37113281 197.07175781 -79.49804688 196.86523438 C-94.01629146 194.04199958 -94.01629146 194.04199958 -98.07763672 189.1965332 C-102.26555566 182.4320734 -101.8751811 175.24936196 -101.73046875 167.6015625 C-101.71397278 166.62783188 -101.69747681 165.65410126 -101.68048096 164.65086365 C-101.6430969 162.59750627 -101.60256576 160.54420406 -101.55908203 158.4909668 C-101.49637877 155.36187941 -101.45489304 152.23295484 -101.4140625 149.10351562 C-101.37500575 147.10283862 -101.33468307 145.10218585 -101.29296875 143.1015625 C-101.27867828 141.70750938 -101.27867828 141.70750938 -101.26409912 140.28529358 C-101.10248047 134.10019868 -100.49253619 128.62968592 -95.99609375 123.97265625 C-89.69102322 120.64498014 -82.76769697 120.22472682 -75.79882812 119.57421875 C-70.39846166 119.17515341 -70.39846166 119.17515341 -65.74609375 116.78515625 C-64.51012935 114.51039319 -63.48506695 112.34967755 -62.49609375 109.97265625 C-55.56899794 94.35299129 -45.57086784 79.24559267 -32.74609375 67.78515625 C-32.08609375 67.78515625 -31.42609375 67.78515625 -30.74609375 67.78515625 C-30.74609375 67.12515625 -30.74609375 66.46515625 -30.74609375 65.78515625 C-28.75406953 64.54310544 -26.75228305 63.31669489 -24.74609375 62.09765625 C-21.12220385 59.62088948 -18.9763658 57.68032636 -17.84375 53.27734375 C-17.80730701 49.33340193 -18.133211 45.68018742 -18.74609375 41.78515625 C-18.90078125 40.72554687 -19.05546875 39.6659375 -19.21484375 38.57421875 C-21.58603766 26.6870493 -28.16620912 17.77462088 -36.70703125 9.453125 C-39.21401422 6.17291548 -39.58756209 3.87335152 -39.74609375 -0.21484375 C-33.19531975 -12.06862528 -9.98412947 -3.23781467 0 0 Z M-21.74609375 103.78515625 C-24.99973815 107.35366947 -25.26065198 110.91090931 -25.10546875 115.56640625 C-24.54688781 119.01503641 -22.98203202 121.16591428 -20.74609375 123.78515625 C-16.28489932 126.75928587 -11.9756183 126.53116546 -6.74609375 125.78515625 C-3.07340419 123.9381557 -1.06377897 121.73821191 0.25390625 117.78515625 C0.75457391 114.03014879 1.0460853 110.40366 -0.65234375 106.93359375 C-3.46710453 103.27079607 -6.29986945 101.73116142 -10.74609375 100.78515625 C-15.30199419 100.78515625 -17.73616545 101.67083042 -21.74609375 103.78515625 Z " fill="#394142" transform="translate(116.74609375,24.21484375)"/>
<path d="M0 0 C7.58730691 -0.24703351 14.82010499 0.45512101 22.3125 1.625 C23.44606934 1.8017627 24.57963867 1.97852539 25.74755859 2.16064453 C36.44589676 3.92295315 46.71709727 6.58601595 57 10 C58.08547119 10.35964844 58.08547119 10.35964844 59.19287109 10.7265625 C81.58757778 18.30775128 102.48201251 30.12939941 120 46 C120.94230469 46.79921875 121.88460937 47.5984375 122.85546875 48.421875 C145.7086622 68.14846794 162.21280201 97.84002175 165 128 C165.0255496 129.9998368 165.03258827 132.00026552 165 134 C167.62651431 133.71880143 170.25069335 133.42556162 172.875 133.125 C173.62136719 133.04636719 174.36773437 132.96773437 175.13671875 132.88671875 C179.52555407 132.4919231 179.52555407 132.4919231 183 130 C182.40251953 129.27296875 182.40251953 129.27296875 181.79296875 128.53125 C176.48085909 121.81033267 173.33786407 115.82451467 173.7265625 107.09375 C174.53565864 100.89838528 178.25943129 97.23721987 182.890625 93.42578125 C186.02499982 91.30717604 188.22966534 90.86534519 192 91 C197.57542742 92.23898387 201.39858302 94.47250437 205 99 C207.69555585 103.92636069 208.93713351 108.42704646 208 114 C207.11640651 116.63884002 206.10230564 119.16040165 204.97265625 121.703125 C204.08507198 123.79910712 203.4835107 125.78094035 203 128 C204.41623216 128.05447047 205.83308191 128.09300508 207.25 128.125 C208.03890625 128.14820313 208.8278125 128.17140625 209.640625 128.1953125 C212.22721795 127.98119057 213.73839502 127.22069892 216 126 C218.625 125.75 218.625 125.75 221 126 C223 128 223 128 223.5 130.375 C223 133 223 133 220.3125 135.1875 C215.16412397 138.00453594 211.54346064 139.26481956 205.625 139.1875 C204.47386719 139.1771875 203.32273437 139.166875 202.13671875 139.15625 C199 139 199 139 195.4375 138.1875 C189.74868219 137.87720085 185.08691764 140.66477757 180 143 C176.89936477 144.03354508 174.68555932 144.13364996 171.4375 144.125 C170.46683594 144.12757813 169.49617187 144.13015625 168.49609375 144.1328125 C166 144 166 144 164 143 C164.06574219 144.4540625 164.06574219 144.4540625 164.1328125 145.9375 C164.12595134 150.49331178 163.07019921 154.62593699 161.875 159 C161.6483667 159.83378174 161.4217334 160.66756348 161.18823242 161.52661133 C155.41977381 182.12656229 145.40258653 198.33909369 131 214 C130.38640625 214.68449219 129.7728125 215.36898437 129.140625 216.07421875 C123.7874499 221.75865468 116.15487501 228.92395246 108.87979126 231.85388184 C106.8240393 232.84003388 106.8240393 232.84003388 106.26669312 234.9954834 C106.15725372 235.81359497 106.04781433 236.63170654 105.93505859 237.47460938 C105.73497696 238.86746155 105.73497696 238.86746155 105.53085327 240.28845215 C105.40465607 241.29670044 105.27845886 242.30494873 105.1484375 243.34375 C104.93098373 244.90204529 104.93098373 244.90204529 104.70913696 246.49182129 C104.24731265 249.82579999 103.81045354 253.16248411 103.375 256.5 C102.92723342 259.80806864 102.47437013 263.11539482 102.0194397 266.42248535 C101.73805681 268.48092842 101.46169669 270.54006667 101.19125366 272.59997559 C98.63846854 291.75911448 98.63846854 291.75911448 94 296 C89.331525 298.52009597 84.70510405 298.32277325 79.53515625 298.3359375 C78.62422714 298.3425943 77.71329803 298.3492511 76.77476501 298.35610962 C74.85254937 298.36621252 72.93029881 298.37092737 71.00805664 298.37060547 C68.07574466 298.37498024 65.14493674 298.41132875 62.21289062 298.44921875 C60.34115096 298.45508718 58.46940417 298.4590564 56.59765625 298.4609375 C55.28958763 298.48249405 55.28958763 298.48249405 53.95509338 298.50448608 C48.47355624 298.46356635 45.35328228 297.64538672 41 294 C37.24077134 289.51426872 36.77991205 283.79246711 35.8125 278.1875 C35.63525391 277.20845703 35.45800781 276.22941406 35.27539062 275.22070312 C34.84123807 272.81526329 34.41643174 270.40855976 34 268 C30.18210844 266.72736948 27.36561303 267.58061451 23.5625 268.4375 C19.63933748 269.30384929 16.0509759 270 12 270 C11.08852215 253.17755897 10.87496909 236.40691015 10.9375 219.5625 C10.94253363 217.16211033 10.94709318 214.76171961 10.95117188 212.36132812 C10.96201021 206.57419537 10.97859559 200.78710285 11 195 C10.22438721 194.85900879 9.44877441 194.71801758 8.6496582 194.57275391 C-0.94407396 192.49895904 -9.9223514 184.20450599 -15.5 176.4375 C-17.75674506 172.83774633 -18.82303055 170.32091038 -18 166 C-17.34 165.01 -16.68 164.02 -16 163 C-15.01 163 -14.02 163 -13 163 C-12.67128906 163.85271484 -12.67128906 163.85271484 -12.3359375 164.72265625 C-7.54767902 176.381871 0.56037173 183.05273014 12.1875 187.9375 C16.4326255 189.12056776 19.62693741 189.23427121 24 189 C23.33355469 188.92523438 22.66710937 188.85046875 21.98046875 188.7734375 C8.80812417 186.89430583 -0.71426539 180.34663121 -8.66796875 169.78515625 C-11.12306136 166.09220181 -12 164.59580382 -12 160 C-7.65469128 158.71308956 -5.2969815 159.32609198 -1.1875 161.125 C-0.21167969 161.54007813 0.76414062 161.95515625 1.76953125 162.3828125 C5.68406163 164.3424444 9.32891292 166.6220105 13 169 C14.00417969 168.17757812 15.00835937 167.35515625 16.04296875 166.5078125 C24.59015777 159.52478745 33.22020582 152.68781853 42 146 C43.13863978 145.12450231 44.27664998 144.24818526 45.4140625 143.37109375 C45.97883301 142.93563232 46.54360352 142.5001709 47.12548828 142.05151367 C48.23356913 141.19663972 49.34132684 140.34134673 50.44873047 139.4855957 C54.14849134 136.63343509 57.89673352 133.85881169 61.70703125 131.15625 C62.13371094 130.7746875 62.56039062 130.393125 63 130 C63 129.34 63 128.68 63 128 C59.25165446 126.26723134 55.50101766 124.53947563 51.75 122.8125 C50.70585937 122.32974609 49.66171875 121.84699219 48.5859375 121.34960938 C41.45348639 118.06956241 34.25921365 114.98742539 27 112 C24.4957584 110.94706754 21.99771911 109.88090508 19.5 108.8125 C18.3553125 108.32394531 17.210625 107.83539063 16.03125 107.33203125 C13.64547931 106.2836449 11.31366021 105.19652526 9 104 C8.41992188 104.67546875 7.83984375 105.3509375 7.2421875 106.046875 C-2.85158421 117.57309616 -2.85158421 117.57309616 -9.6875 118.5 C-13 118 -13 118 -14.70703125 115.96875 C-15.13371094 115.3190625 -15.56039063 114.669375 -16 114 C-15.29875 113.67128906 -14.5975 113.34257812 -13.875 113.00390625 C-1.83900533 106.96955566 4.52295794 98.6823526 9 86 C9.64367963 82.90948523 9.89263072 80.16739379 10 77 C9.34 77 8.68 77 8 77 C8.144375 78.03125 8.28875 79.0625 8.4375 80.125 C8.47019075 89.27841084 1.89930193 98.4576462 -4 105 C-8.24957775 108.856445 -12.43607918 110.75095655 -18 112 C-19 111 -19 111 -19.3125 108 C-19.14003091 98.62917946 -12.52623272 90.78424974 -6.4375 84.25 C-2.82728556 80.91749436 0.56709683 78.12741865 5 76 C4.35321388 60.6736524 3.21260807 45.4106239 1.9375 30.125 C1.65725016 26.75476033 1.37798423 23.38445268 1.10169983 20.0138855 C0.93157711 17.93908427 0.75920875 15.86446551 0.58421326 13.79006958 C0.2055935 9.17881188 -0.1046302 4.63195452 0 0 Z M16 21 C14.99364754 23.36462492 14.99364754 23.36462492 15 26 C16.44325724 28.50168469 17.32795717 29.76656676 20.09033203 30.72607422 C21.28698486 30.88873779 21.28698486 30.88873779 22.5078125 31.0546875 C23.85141846 31.25904419 23.85141846 31.25904419 25.22216797 31.4675293 C26.65906982 31.66922729 26.65906982 31.66922729 28.125 31.875 C45.97964275 34.78377154 60.93870249 40.95913499 76 51 C78.58333333 50.91666667 78.58333333 50.91666667 81 50 C83.25889413 47.25582162 83.25889413 47.25582162 82.87890625 44.51953125 C80.31333223 37.16488572 68.92991291 33.1530034 62.23803711 29.8515625 C51.37910774 24.68486491 27.12271638 13.58485574 16 21 Z M185 104 C183.38404984 107.23190032 183.55286429 110.49641609 184 114 C185.29843411 117.84820886 186.52539727 121.1550634 190.140625 123.2265625 C190.75421875 123.48179687 191.3678125 123.73703125 192 124 C196.03235904 120.66287528 197.84573433 117.02058645 199 112 C199 107.53306489 198.76042193 105.78043303 195.625 102.5625 C191.17001036 99.91072045 189.01514408 101.25279615 185 104 Z " fill="#CB4C4A" transform="translate(275,43)"/>
<path d="M0 0 C15.4564173 4.12171128 29.89621655 16.18158291 38.6015625 29.515625 C44.00926487 39.12260464 46.742532 49.07461408 43.875 59.9375 C41.79663312 66.35074638 38.13856991 72.54564184 33 77 C32.34 77 31.68 77 31 77 C30.81207886 76.09459473 30.81207886 76.09459473 30.62036133 75.17089844 C27.31228339 59.43014846 23.0318802 46.02128915 15 32 C15 34.79809437 15.33394182 36.35896179 16.20703125 38.95703125 C16.46266846 39.73296631 16.71830566 40.50890137 16.98168945 41.30834961 C17.25585693 42.13471924 17.53002441 42.96108887 17.8125 43.8125 C21.67306364 55.77447512 24.3303145 67.39143856 25 80 C20.70473612 81.43175463 17.90720081 79.85415605 14 78 C5.81395979 73.76017142 0.44298081 69.11326931 -4 61 C-4.433125 60.236875 -4.86625 59.47375 -5.3125 58.6875 C-12.46466526 43.19114193 -8.21394198 22.15779207 -2.84375 6.6640625 C-1.95788225 4.40509974 -1.03603227 2.19330236 0 0 Z " fill="#CD4D4C" transform="translate(214,37)"/>
<path d="M0 0 C5.7104919 3.48230423 9.80299676 8.18727996 12.4375 14.3125 C13.27548157 18.15324886 13.45253413 21.72009929 13.375 25.625 C13.0108503 29.34919837 13.0108503 29.34919837 15.4375 31.3125 C15.875 33.6875 15.875 33.6875 15.4375 36.3125 C13.7899116 37.66933751 12.11833079 38.99706721 10.4375 40.3125 C9.44098024 41.76621427 8.48565749 43.24862828 7.5625 44.75 C3.44930175 51.08120136 -0.53818251 54.08908853 -7.9375 55.8125 C-14.53971792 56.74277147 -19.28792455 55.57906557 -24.7578125 51.79296875 C-28.12410778 49.04155029 -30.70887396 46.41614595 -32.75 42.5625 C-34.28784869 39.16306301 -34.28784869 39.16306301 -37.3125 37.6875 C-38.055 37.23375 -38.7975 36.78 -39.5625 36.3125 C-39.9375 33.6875 -39.9375 33.6875 -39.5625 31.3125 C-39.0675 30.8175 -39.0675 30.8175 -38.5625 30.3125 C-38.60375 29.013125 -38.645 27.71375 -38.6875 26.375 C-38.74488145 19.15641413 -36.88565898 11.64802806 -32.3125 5.91796875 C-23.7064218 -1.9773396 -10.85002375 -4.96526511 0 0 Z " fill="#E6BB8F" transform="translate(262.5625,241.6875)"/>
<path d="M0 0 C2.91816808 1.34343994 4.55749363 2.81733473 7 5 C10.27844091 6.32398575 12.47386458 7 16 7 C16.61875 6.319375 17.2375 5.63875 17.875 4.9375 C18.926875 3.9784375 18.926875 3.9784375 20 3 C22.5625 3.25 22.5625 3.25 25 4 C27.62113708 4 29.50935112 3.68707555 32 3 C34.475 5.97 34.475 5.97 37 9 C37.66 8.34 38.32 7.68 39 7 C40.67509334 6.30467824 42.35149024 5.61045533 44.05078125 4.9765625 C46.18887237 4.01643634 46.18887237 4.01643634 48.26171875 1.9296875 C51.83552666 -0.58880195 54.16365263 -0.53469078 58.5 -0.5 C59.7890625 -0.5103125 61.078125 -0.520625 62.40625 -0.53125 C67.16763474 0.17260688 69.44783533 1.93664337 72.3046875 5.734375 C73.37042162 9.20699181 73.20751544 12.65740483 73.125 16.25 C73.11597656 16.99507813 73.10695313 17.74015625 73.09765625 18.5078125 C73.07418358 20.33868059 73.03831525 22.16938238 73 24 C71.68 24.66 70.36 25.32 69 26 C68.67 25.67 68.34 25.34 68 25 C67.98018066 25.74685059 67.96036133 26.49370117 67.93994141 27.26318359 C67.84491789 30.63415605 67.73514741 34.00448929 67.625 37.375 C67.5940625 38.550625 67.563125 39.72625 67.53125 40.9375 C67.49257813 42.05898438 67.45390625 43.18046875 67.4140625 44.3359375 C67.36693115 45.89127197 67.36693115 45.89127197 67.31884766 47.47802734 C67 50 67 50 65 52 C61.46428571 51.46428571 61.46428571 51.46428571 60 50 C59.84313751 48.44051458 59.74923361 46.87457332 59.68359375 45.30859375 C59.64169922 44.36435547 59.59980469 43.42011719 59.55664062 42.44726562 C59.51732422 41.45404297 59.47800781 40.46082031 59.4375 39.4375 C59.39431641 38.44041016 59.35113281 37.44332031 59.30664062 36.41601562 C59.20019702 33.9441585 59.09818072 31.4721969 59 29 C58.34 29 57.68 29 57 29 C56.67 35.93 56.34 42.86 56 50 C54.02 50.99 54.02 50.99 52 52 C48.94919054 48.94919054 49.64211292 45.37189221 49.5859375 41.2734375 C49.56657135 40.41062164 49.5472052 39.54780579 49.5272522 38.65884399 C49.46737796 35.89766384 49.42104002 33.13644216 49.375 30.375 C49.33682741 28.50518995 49.29777611 26.63539762 49.2578125 24.765625 C49.16167008 20.17722691 49.07766834 15.58874649 49 11 C47.2284541 11.4465086 45.45937835 11.90282554 43.69140625 12.36328125 C42.70599854 12.61634033 41.72059082 12.86939941 40.70532227 13.13012695 C37.50774599 14.15828003 35.43939838 15.71798216 33 18 C32.34 18 31.68 18 31 18 C30.505 19.485 30.505 19.485 30 21 C27.8125 22.375 27.8125 22.375 25 23 C20.80766646 21.49075993 18.35156852 19.78863816 16 16 C16.33 15.34 16.66 14.68 17 14 C16.34 14 15.68 14 15 14 C14.34 13.34 13.68 12.68 13 12 C11.906875 12.020625 10.81375 12.04125 9.6875 12.0625 C5.73569971 11.99552033 4.1394159 11.28321156 1 9 C1.33 9.99 1.66 10.98 2 12 C2.02824661 14.78375869 1.99843575 17.53584003 1.9140625 20.31640625 C1.89282318 21.12867172 1.87158386 21.94093719 1.84970093 22.77781677 C1.80347532 24.493471 1.75455001 26.2090543 1.703125 27.92456055 C1.62520203 30.55567819 1.55809038 33.18691625 1.4921875 35.81835938 C1.44595967 37.48439308 1.39910598 39.15040957 1.3515625 40.81640625 C1.33171295 41.60600235 1.3118634 42.39559845 1.29141235 43.2091217 C1.11512268 48.76975464 1.11512268 48.76975464 0 51 C-1.65 50.67 -3.3 50.34 -5 50 C-5 42.41 -5 34.82 -5 27 C-6.32 27 -7.64 27 -9 27 C-8.98952637 27.65597168 -8.97905273 28.31194336 -8.96826172 28.98779297 C-8.92677497 31.95015658 -8.90069738 34.91245916 -8.875 37.875 C-8.85824219 38.90753906 -8.84148437 39.94007813 -8.82421875 41.00390625 C-8.81777344 41.99003906 -8.81132812 42.97617187 -8.8046875 43.9921875 C-8.79421387 44.90339355 -8.78374023 45.81459961 -8.77294922 46.75341797 C-9 49 -9 49 -11 51 C-14.53571429 50.46428571 -14.53571429 50.46428571 -16 49 C-16.15786308 47.14825294 -16.25107356 45.2909089 -16.31640625 43.43359375 C-16.37924805 41.7465332 -16.37924805 41.7465332 -16.44335938 40.02539062 C-16.48267578 38.84138672 -16.52199219 37.65738281 -16.5625 36.4375 C-16.60568359 35.24962891 -16.64886719 34.06175781 -16.69335938 32.83789062 C-16.79983546 29.89205216 -16.90184841 26.9461257 -17 24 C-17.99 24.66 -18.98 25.32 -20 26 C-23 24 -23 24 -23.8125 21.0625 C-24.36381134 15.2063484 -23.78960661 9.12432993 -20.83203125 3.9609375 C-15.45444515 -1.87284485 -7.28861601 -1.10335955 0 0 Z " fill="#3F4849" transform="translate(223,338)"/>
<path d="M0 0 C4.9430602 0.49430602 8.74976194 1.36890025 13 4 C14.31977666 7.95932998 13.29824534 9.42387647 11.75 13.25 C11.31171875 14.34828125 10.8734375 15.4465625 10.421875 16.578125 C7.85108787 22.76496436 5.16211952 28.87536579 2.3125 34.9375 C1.99216797 35.62134766 1.67183594 36.30519531 1.34179688 37.00976562 C0.56221321 38.67365316 -0.21874751 40.33689538 -1 42 C-1.75539062 41.78601563 -2.51078125 41.57203125 -3.2890625 41.3515625 C-5.93280271 40.73971141 -5.93280271 40.73971141 -7.7734375 41.9609375 C-8.30195313 42.42757812 -8.83046875 42.89421875 -9.375 43.375 C-12.87340242 46.0917637 -15.4691306 47 -20 47 C-25.0625 44.9375 -25.0625 44.9375 -27 43 C-28.34968687 34.69686302 -25.75572377 28.70704136 -21 22 C-15.82794958 15.73443035 -9.6188463 10.07272479 -2 7 C1.9375 7.125 1.9375 7.125 5 8 C5.99 8 6.98 8 8 8 C8.33 7.34 8.66 6.68 9 6 C7.6078125 5.566875 7.6078125 5.566875 6.1875 5.125 C3 4 3 4 0 2 C0 1.34 0 0.68 0 0 Z " fill="#CB524F" transform="translate(228,201)"/>
<path d="M0 0 C1.2890625 -0.0103125 2.578125 -0.020625 3.90625 -0.03125 C8.66763474 0.67260688 10.94783533 2.43664337 13.8046875 6.234375 C14.87042162 9.70699181 14.70751544 13.15740483 14.625 16.75 C14.61597656 17.49507813 14.60695313 18.24015625 14.59765625 19.0078125 C14.57418358 20.83868059 14.53831525 22.66938238 14.5 24.5 C12.52 25.49 12.52 25.49 10.5 26.5 C10.17 26.17 9.84 25.84 9.5 25.5 C9.48018066 26.24685059 9.46036133 26.99370117 9.43994141 27.76318359 C9.34491789 31.13415605 9.23514741 34.50448929 9.125 37.875 C9.07859375 39.6384375 9.07859375 39.6384375 9.03125 41.4375 C8.99257813 42.55898438 8.95390625 43.68046875 8.9140625 44.8359375 C8.8826416 45.87282715 8.8512207 46.9097168 8.81884766 47.97802734 C8.5 50.5 8.5 50.5 6.5 52.5 C2.96428571 51.96428571 2.96428571 51.96428571 1.5 50.5 C1.34313751 48.94051458 1.24923361 47.37457332 1.18359375 45.80859375 C1.14169922 44.86435547 1.09980469 43.92011719 1.05664062 42.94726562 C1.01732422 41.95404297 0.97800781 40.96082031 0.9375 39.9375 C0.89431641 38.94041016 0.85113281 37.94332031 0.80664062 36.91601562 C0.70019702 34.4441585 0.59818072 31.9721969 0.5 29.5 C-0.16 29.5 -0.82 29.5 -1.5 29.5 C-1.83 36.43 -2.16 43.36 -2.5 50.5 C-3.82 51.16 -5.14 51.82 -6.5 52.5 C-9.55080946 49.44919054 -8.85788708 45.87189221 -8.9140625 41.7734375 C-8.93342865 40.91062164 -8.9527948 40.04780579 -8.9727478 39.15884399 C-9.03262204 36.39766384 -9.07895998 33.63644216 -9.125 30.875 C-9.16317259 29.00518995 -9.20222389 27.13539762 -9.2421875 25.265625 C-9.33832992 20.67722691 -9.42233166 16.08874649 -9.5 11.5 C-12.8 11.83 -16.1 12.16 -19.5 12.5 C-19.5 10.85 -19.5 9.2 -19.5 7.5 C-17.83984375 6.84895833 -16.1796875 6.19791667 -14.51953125 5.546875 C-12.32428089 4.51999807 -12.32428089 4.51999807 -10.23046875 2.421875 C-6.66191184 -0.08989897 -4.32832365 -0.03462659 0 0 Z " fill="#424A4B" transform="translate(281.5,337.5)"/>
<path d="M0 0 C5.7104919 3.48230423 9.80299676 8.18727996 12.4375 14.3125 C13.53369946 19.33674754 13.52723837 24.19741291 13.4375 29.3125 C11.11328125 29.15234375 11.11328125 29.15234375 8.4375 28.3125 C6.85546875 25.87890625 6.85546875 25.87890625 5.625 22.875 C5.20605469 21.88628906 4.78710938 20.89757812 4.35546875 19.87890625 C3.4375 17.3125 3.4375 17.3125 3.4375 15.3125 C2.85484375 15.5290625 2.2721875 15.745625 1.671875 15.96875 C-5.52035115 18.41139284 -13.8963225 20.25032784 -21.16796875 17.23046875 C-23.46335871 16.18744662 -23.46335871 16.18744662 -25.671875 16.30859375 C-28.67199719 17.90163384 -29.41219948 20.35162387 -30.8125 23.375 C-31.33328125 24.47972656 -31.8540625 25.58445312 -32.390625 26.72265625 C-32.77734375 27.57730469 -33.1640625 28.43195313 -33.5625 29.3125 C-34.5525 29.3125 -35.5425 29.3125 -36.5625 29.3125 C-37.03562793 19.10082225 -37.05165053 12.82774208 -30.375 4.625 C-21.9717161 -2.28436676 -10.20594756 -4.7357143 0 0 Z " fill="#3A4343" transform="translate(262.5625,241.6875)"/>
<path d="M0 0 C2.875 2.375 2.875 2.375 5 5 C5.5775 5.680625 6.155 6.36125 6.75 7.0625 C9.48817945 11.30667815 9.51689105 16.06369047 9 21 C8.18002934 24.07488997 7.15297975 27.03519494 6 30 C5.67 30 5.34 30 5 30 C4.87625 28.14375 4.87625 28.14375 4.75 26.25 C4.24852529 22.15939911 3.06055899 20.79050967 0 18 C-1.00484883 15.66875071 -2.00522247 13.33556463 -3 11 C-5.82568546 8.67961905 -5.82568546 8.67961905 -9.0625 9.1875 C-12.29740953 9.73754498 -12.29740953 9.73754498 -14 13 C-14.52502314 19.19527301 -13.43845081 23.31028145 -11 29 C-11.99 29.33 -12.98 29.66 -14 30 C-15.22520264 33.00847418 -15.22520264 33.00847418 -16 36 C-21.51331819 31.40556818 -24.32404877 25.68659522 -25.3515625 18.5625 C-25.53404846 13.65196878 -24.86106122 10.1127755 -22 6 C-15.13420079 -1.177881 -9.60497009 -3.56257072 0 0 Z " fill="#CC5452" transform="translate(474,136)"/>
<path d="M0 0 C13.8515014 2.27531867 25.75487989 7.37238757 34.44921875 18.92578125 C36.46170035 22.22342654 37 24.07270843 37 28 C26.67401297 28.75098087 19.0915087 24.06863153 11 18 C5.09201007 12.76337256 1.02364161 7.91096938 0 0 Z " fill="#CC5250" transform="translate(190,133)"/>
<path d="M0 0 C1.32 1.32 2.64 2.64 4 4 C-0.09998031 10.89337349 -3.74254949 16.26879095 -11.57421875 18.84765625 C-18.05542602 20.35722614 -23.11684481 20.23250285 -29 17 C-34.99345466 12.94748617 -38.21149054 8.62270996 -41 2 C-39.68 1.67 -38.36 1.34 -37 1 C-37 2.32 -37 3.64 -37 5 C-36.11739502 4.96447021 -35.23479004 4.92894043 -34.32543945 4.89233398 C-31.03620039 4.76275462 -27.74684812 4.63850929 -24.45727539 4.51782227 C-23.03629587 4.4646063 -21.61539319 4.40929429 -20.19458008 4.35180664 C-18.14681561 4.26932226 -16.09888898 4.19449595 -14.05078125 4.12109375 C-12.82012939 4.0739624 -11.58947754 4.02683105 -10.3215332 3.97827148 C-7.37091647 3.99757357 -4.85421437 4.29651314 -2 5 C-1.34 3.35 -0.68 1.7 0 0 Z " fill="#E6BF90" transform="translate(269,278)"/>
<path d="M0 0 C0.33 0 0.66 0 1 0 C1 2.97 1 5.94 1 9 C2.051875 8.731875 3.10375 8.46375 4.1875 8.1875 C13.0033084 7.14393257 21.2453444 12.05177278 27.9375 17.3125 C33.44384561 22.15969183 38.10700003 26.59543761 40 33.8125 C40 37 40 37 38 40 C37.01 40 36.02 40 35 40 C34.4740625 38.515 34.4740625 38.515 33.9375 37 C29.49326123 26.81528616 20.95753868 22.08515396 11.5 17.1875 C6.95286761 15.64472294 2.78807532 15.32795036 -2 15 C-1.34 10.05 -0.68 5.1 0 0 Z " fill="#C85453" transform="translate(193,118)"/>
<path d="M0 0 C0.763125 0.268125 1.52625 0.53625 2.3125 0.8125 C4.93363708 0.8125 6.82185112 0.49957555 9.3125 -0.1875 C10.9625 1.7925 12.6125 3.7725 14.3125 5.8125 C14.9725 5.4825 15.6325 5.1525 16.3125 4.8125 C16.3125 5.8025 16.3125 6.7925 16.3125 7.8125 C17.3025 8.4725 18.2925 9.1325 19.3125 9.8125 C18.384375 10.080625 17.45625 10.34875 16.5 10.625 C13.4813359 11.74960035 12.3969857 12.51956573 10.3125 14.8125 C9.6525 14.8125 8.9925 14.8125 8.3125 14.8125 C7.9825 15.8025 7.6525 16.7925 7.3125 17.8125 C5.125 19.1875 5.125 19.1875 2.3125 19.8125 C-1.87983354 18.30325993 -4.33593148 16.60113816 -6.6875 12.8125 C-6.3575 12.1525 -6.0275 11.4925 -5.6875 10.8125 C-6.3475 10.8125 -7.0075 10.8125 -7.6875 10.8125 C-8.3475 9.8225 -9.0075 8.8325 -9.6875 7.8125 C-8.19329342 3.32988025 -4.99013731 -0.34814911 0 0 Z " fill="#DEB893" transform="translate(245.6875,341.1875)"/>
<path d="M0 0 C0.66 0.33 1.32 0.66 2 1 C2 1.66 2 2.32 2 3 C1.0821875 3.4125 0.164375 3.825 -0.78125 4.25 C-12.37303521 9.63032015 -20.44931615 16.11350267 -26 28 C-26.93137687 31.02249707 -27.49454852 33.86620084 -28 37 C-29.32 36.34 -30.64 35.68 -32 35 C-32.99065416 26.54274876 -30.88790354 20.89345572 -26 14 C-19.67711882 6.34028109 -10.64233233 -3.32572885 0 0 Z " fill="#CB5754" transform="translate(233,209)"/>
<path d="M0 0 C0.33 0 0.66 0 1 0 C1 3.63 1 7.26 1 11 C1.99 10.67 2.98 10.34 4 10 C5.21869929 7.49552484 5.21869929 7.49552484 6 5 C6.33 5.66 6.66 6.32 7 7 C7.886875 6.67 8.77375 6.34 9.6875 6 C12.70923347 5.08777857 14.88373706 4.81669042 18 5 C19.43104273 7.29487216 20.08680907 8.46674429 19.64453125 11.18359375 C16.43133132 19.88789591 16.43133132 19.88789591 14 23 C11.1699796 24.18678275 9.16000665 24 6 24 C6 22.68 6 21.36 6 20 C4.865625 19.855625 3.73125 19.71125 2.5625 19.5625 C-1 19 -1 19 -2 18 C-2.125 15.5 -2.125 15.5 -2 13 C-1.67 12.67 -1.34 12.34 -1 12 C-0.9278635 9.73671744 -1.00351911 7.48995407 -1.0625 5.2265625 C-1 3 -1 3 0 0 Z " fill="#DEB689" transform="translate(225,260)"/>
<path d="M0 0 C0.99 0 1.98 0 3 0 C3.21914063 0.56847656 3.43828125 1.13695312 3.6640625 1.72265625 C8.22403315 12.82599941 15.47322779 19.21181078 26.48828125 24.10546875 C28.30533199 24.79291423 30.1500893 25.40663242 32 26 C31.38125 26.28875 30.7625 26.5775 30.125 26.875 C27.86674235 27.93720042 27.86674235 27.93720042 26 30 C21.62427303 30.85380038 19.15426781 29.7163913 15.5625 27.375 C14.02716745 26.26986969 12.50575121 25.145108 11 24 C10.36578125 23.53207031 9.7315625 23.06414062 9.078125 22.58203125 C3.58775648 18.24561186 -1.45063778 12.70819498 -2.5 5.625 C-2 3 -2 3 0 0 Z " fill="#CB6263" transform="translate(259,206)"/>
<path d="M0 0 C2 3 2 3 2.25 5.0625 C2.4975 5.701875 2.745 6.34125 3 7 C5.96260526 8.23757877 5.96260526 8.23757877 9 9 C10 10 10 10 10.25 12.375 C10 15 10 15 8.8125 16.875 C7 18 7 18 4.3125 17.6875 C3.549375 17.460625 2.78625 17.23375 2 17 C1.01 18.32 0.02 19.64 -1 21 C-5.875 20.125 -5.875 20.125 -7 19 C-7.04080783 17.00041636 -7.04254356 14.99954746 -7 13 C-7.99 12.67 -8.98 12.34 -10 12 C-10 10.35 -10 8.7 -10 7 C-10.66 6.67 -11.32 6.34 -12 6 C-11.34 4.68 -10.68 3.36 -10 2 C-7.03 2.33 -4.06 2.66 -1 3 C-0.67 2.01 -0.34 1.02 0 0 Z " fill="#E2B688" transform="translate(268,263)"/>
<path d="M0 0 C1.04671875 -0.02578125 2.0934375 -0.0515625 3.171875 -0.078125 C6.63461383 0.29099944 8.45569361 1.21642115 11.25 3.25 C13.17863839 5.79229606 13.25902291 7.03345018 13.125 10.25 C12.06079217 13.89871257 11.48014699 15.2016141 8.25 17.25 C4.88986965 17.57704565 1.61428611 17.48113416 -1.75 17.25 C-1.75 19.56 -1.75 21.87 -1.75 24.25 C-3.4 23.92 -5.05 23.59 -6.75 23.25 C-6.77887512 19.60418313 -6.79675585 15.95839537 -6.8125 12.3125 C-6.82087891 11.27158203 -6.82925781 10.23066406 -6.83789062 9.15820312 C-6.84272461 7.67416992 -6.84272461 7.67416992 -6.84765625 6.16015625 C-6.85289307 5.24371338 -6.85812988 4.32727051 -6.86352539 3.38305664 C-6.63362006 -0.93669156 -3.68862348 0.05397986 0 0 Z M-1.75 4.25 C-1.75 7.55 -1.75 10.85 -1.75 14.25 C1.55 13.59 4.85 12.93 8.25 12.25 C8.5002157 9.33365871 8.5002157 9.33365871 8.25 6.25 C4.6058226 3.8205484 2.53758728 4.08820425 -1.75 4.25 Z " fill="#CC7170" transform="translate(222.75,169.75)"/>
<path d="M0 0 C0.99 0.33 1.98 0.66 3 1 C2.43545856 5.84347405 1.42731745 10.09349678 -0.25 14.66796875 C-0.6934375 15.89064453 -1.136875 17.11332031 -1.59375 18.37304688 C-2.06216027 19.64465645 -2.53091357 20.91613971 -3 22.1875 C-3.91957624 24.70077552 -4.83499046 27.21552246 -5.75 29.73046875 C-6.15734375 30.83801514 -6.5646875 31.94556152 -6.984375 33.08666992 C-7.78696813 35.38891604 -8.46908394 37.62422277 -9 40 C-8.071875 40.28875 -7.14375 40.5775 -6.1875 40.875 C-3 42 -3 42 0 44 C0 44.99 0 45.98 0 47 C-6.15222436 46.56826496 -9.81917949 45.34594658 -15 42 C-14.28643412 37.80369519 -13.01955977 33.9512136 -11.6015625 29.94140625 C-11.36593597 29.27463364 -11.13030945 28.60786102 -10.88754272 27.92088318 C-10.38994951 26.51590504 -9.89061774 25.11154155 -9.38964844 23.70776367 C-8.62932652 21.57463829 -7.87681733 19.4388698 -7.125 17.30273438 C-6.63849083 15.93212475 -6.15152646 14.56167659 -5.6640625 13.19140625 C-5.22529785 11.95592041 -4.7865332 10.72043457 -4.33447266 9.44750977 C-3.0690083 6.17827777 -1.62324032 3.10472201 0 0 Z " fill="#CE726F" transform="translate(253,117)"/>
<path d="M0 0 C2.5 1 2.5 1 4 2 C3.67 2.99 3.34 3.98 3 5 C-0.3 5 -3.6 5 -7 5 C-7.33 6.32 -7.66 7.64 -8 9 C-6.96939453 9.29003906 -6.96939453 9.29003906 -5.91796875 9.5859375 C-5.01691406 9.84632813 -4.11585938 10.10671875 -3.1875 10.375 C-2.29417969 10.63023437 -1.40085938 10.88546875 -0.48046875 11.1484375 C2 12 2 12 5 14 C5.4375 17.4375 5.4375 17.4375 5 21 C2.79721653 23.75347934 0.41413293 24.24861469 -2.9375 24.8125 C-6.44507658 25.12661134 -8.94784042 24.94228337 -12 23 C-12.8125 20.875 -12.8125 20.875 -13 19 C-12.34 18.67 -11.68 18.34 -11 18 C-10.34 18.33 -9.68 18.66 -9 19 C-7.46331135 19.22467831 -5.92031946 19.40796805 -4.375 19.5625 C-3.55773437 19.64628906 -2.74046875 19.73007813 -1.8984375 19.81640625 C-0.95871094 19.90728516 -0.95871094 19.90728516 0 20 C0 18.68 0 17.36 0 16 C-0.68707031 15.81824219 -1.37414062 15.63648438 -2.08203125 15.44921875 C-2.98308594 15.19785156 -3.88414062 14.94648438 -4.8125 14.6875 C-5.70582031 14.44386719 -6.59914062 14.20023438 -7.51953125 13.94921875 C-10.09671714 12.96298856 -11.3352904 12.17651353 -13 10 C-13.5 7.0625 -13.5 7.0625 -13 4 C-9.09130825 -0.64157146 -5.67466682 -0.54044446 0 0 Z " fill="#CD6A6A" transform="translate(205,170)"/>
<path d="M0 0 C1.25159912 0.00523682 2.50319824 0.01047363 3.79272461 0.01586914 C4.78942421 0.01799156 4.78942421 0.01799156 5.80625916 0.02015686 C7.93590735 0.02577021 10.06545175 0.03832485 12.19506836 0.05102539 C13.63582205 0.05603868 15.07657739 0.06060188 16.51733398 0.06469727 C20.05577938 0.07574394 23.59416375 0.09301747 27.13256836 0.11352539 C28.25756836 4.86352539 28.25756836 4.86352539 27.13256836 7.11352539 C22.89674509 7.16291167 18.66107371 7.19923802 14.42504883 7.22338867 C12.98361289 7.23345502 11.54219741 7.24710919 10.10083008 7.2644043 C8.03062902 7.28862551 5.9606976 7.30000181 3.89038086 7.30883789 C2.0208374 7.32454834 2.0208374 7.32454834 0.11352539 7.34057617 C-2.86743164 7.11352539 -2.86743164 7.11352539 -4.86743164 5.11352539 C-4.28539335 1.27207269 -4.04527243 0.16015766 0 0 Z " fill="#CF8582" transform="translate(234.867431640625,382.886474609375)"/>
<path d="M0 0 C6.6 0 13.2 0 20 0 C20 1.65 20 3.3 20 5 C17.36 5 14.72 5 12 5 C12 11.27 12 17.54 12 24 C11.01 24.33 10.02 24.66 9 25 C8.34 24.67 7.68 24.34 7 24 C7 18.06 7 12.12 7 6 C4.69 5.34 2.38 4.68 0 4 C0 2.68 0 1.36 0 0 Z " fill="#D29796" transform="translate(274,170)"/>
<path d="M0 0 C9.9 0 19.8 0 30 0 C30 1.98 30 3.96 30 6 C20.1 6 10.2 6 0 6 C0 4.02 0 2.04 0 0 Z " fill="#CF686A" transform="translate(236,367)"/>
<path d="M0 0 C0 1.98 0 3.96 0 6 C-9.57 6 -19.14 6 -29 6 C-29.33 4.35 -29.66 2.7 -30 1 C-27.33154649 -1.66845351 -19.73315792 -0.49518268 -16.125 -0.625 C-14.30935547 -0.70234375 -14.30935547 -0.70234375 -12.45703125 -0.78125 C-10.71873047 -0.84699219 -10.71873047 -0.84699219 -8.9453125 -0.9140625 C-7.87812988 -0.9548291 -6.81094727 -0.9955957 -5.71142578 -1.03759766 C-3 -1 -3 -1 0 0 Z " fill="#CC5D5C" transform="translate(263,375)"/>
<path d="M0 0 C2.97 0.495 2.97 0.495 6 1 C6.33 1.99 6.66 2.98 7 4 C7.66 4 8.32 4 9 4 C9.66 2.68 10.32 1.36 11 0 C21.43312102 8.58280255 21.43312102 8.58280255 24 15 C23.75 18.9375 23.75 18.9375 23 22 C21.68 22.33 20.36 22.66 19 23 C18.649375 22.01 18.29875 21.02 17.9375 20 C14.10223435 11.21084955 7.25266024 6.38370685 -1 2 C-0.67 1.34 -0.34 0.68 0 0 Z " fill="#C34648" transform="translate(209,135)"/>
<path d="M0 0 C1.97558594 0.9074707 1.97558594 0.9074707 4 3 C4.59371273 6.15256597 4.46371755 9.28270527 4.390625 12.48046875 C4.38496521 13.40845779 4.37930542 14.33644684 4.37347412 15.29255676 C4.35107376 18.25806146 4.30087073 21.2223602 4.25 24.1875 C4.22993973 26.19724818 4.21168813 28.20701529 4.1953125 30.21679688 C4.15119696 35.14499629 4.08214424 40.07229365 4 45 C2.68 45 1.36 45 0 45 C-0.16784025 38.75220534 -0.32780106 32.50424527 -0.48217773 26.25610352 C-0.53568206 24.12877795 -0.59101764 22.00149764 -0.64819336 19.87426758 C-0.72986981 16.8238298 -0.80504681 13.77329203 -0.87890625 10.72265625 C-0.90594131 9.76537125 -0.93297638 8.80808624 -0.96083069 7.8217926 C-0.98092697 6.94095505 -1.00102325 6.06011749 -1.02172852 5.15258789 C-1.04171402 4.37315323 -1.06169952 3.59371857 -1.08229065 2.79066467 C-1 1 -1 1 0 0 Z " fill="#2D3536" transform="translate(274,344)"/>
<path d="M0 0 C3.00418477 2.19224294 3.88405339 3.30432037 4.5 7 C4 10 4 10 2.4375 12.375 C-0.95870843 14.63913895 -3.00099302 14.64269755 -7 14 C-9.5 11.9375 -9.5 11.9375 -11 9 C-11.0625 5.375 -11.0625 5.375 -10 2 C-6.61398596 -1.00979026 -4.23876925 -1.63029587 0 0 Z " fill="#424B4C" transform="translate(285,321)"/>
<path d="M0 0 C1.32 0 2.64 0 4 0 C4 6.6 4 13.2 4 20 C7.3 20 10.6 20 14 20 C14.99 20.33 15.98 20.66 17 21 C17 21.99 17 22.98 17 24 C14.56288386 24.19484938 12.12562602 24.38115178 9.6875 24.5625 C8.99720703 24.61857422 8.30691406 24.67464844 7.59570312 24.73242188 C4.37487726 24.96581505 2.09672655 25.03224218 -1 24 C-1.02887236 20.18751574 -1.04675492 16.3750593 -1.0625 12.5625 C-1.07087891 11.47388672 -1.07925781 10.38527344 -1.08789062 9.26367188 C-1.09111328 8.22919922 -1.09433594 7.19472656 -1.09765625 6.12890625 C-1.10289307 5.17056885 -1.10812988 4.21223145 -1.11352539 3.22485352 C-1 1 -1 1 0 0 Z " fill="#D3A09F" transform="translate(242,170)"/>
<path d="M0 0 C2.06719957 2.51659078 2.01244355 3.79675537 1.8125 7.0625 C0.62001771 11.37378211 0.62001771 11.37378211 -2 13 C-4.875 13.5 -4.875 13.5 -8 13 C-11.10164769 10.44975635 -12.72566416 8.82300753 -14 5 C-11.06741573 -0.43071161 -11.06741573 -0.43071161 -8.125 -2 C-5.031902 -2 -2.80704563 -1.28147735 0 0 Z " fill="#3A4244" transform="translate(221,322)"/>
<path d="M0 0 C0 0.99 0 1.98 0 3 C-0.639375 3.12375 -1.27875 3.2475 -1.9375 3.375 C-2.618125 3.58125 -3.29875 3.7875 -4 4 C-4.33 4.66 -4.66 5.32 -5 6 C-3.68 5.34 -2.36 4.68 -1 4 C-1 4.66 -1 5.32 -1 6 C1.01822917 6.45572917 3.03645833 6.91145833 5.0546875 7.3671875 C7 8 7 8 9 10 C9 10.99 9 11.98 9 13 C8.01 13 7.02 13 6 13 C6 13.99 6 14.98 6 16 C5.34 16 4.68 16 4 16 C3.67 15.34 3.34 14.68 3 14 C-0.11785113 14.64644661 -0.11785113 14.64644661 -1 17 C-1 15.68 -1 14.36 -1 13 C-2.65 13 -4.3 13 -6 13 C-6 12.34 -6 11.68 -6 11 C-6.99 11 -7.98 11 -9 11 C-9.66 10.01 -10.32 9.02 -11 8 C-9.208612 2.62583601 -5.57736488 0 0 0 Z " fill="#CD8F58" transform="translate(247,341)"/>
<path d="M0 0 C0.33 0 0.66 0 1 0 C1 1.65 1 3.3 1 5 C-0.12535156 5.49306641 -0.12535156 5.49306641 -1.2734375 5.99609375 C-13.44027856 11.65045691 -22.19719446 18.84372667 -26.9609375 31.56640625 C-27.68888342 33.70015599 -28.37058881 35.83543958 -29 38 C-29.66 38 -30.32 38 -31 38 C-31.85039585 30.17635817 -28.65463173 24.48645057 -23.98046875 18.34765625 C-18.26800048 11.69478165 -12.13041671 6.61831549 -4 3.25 C-0.89823024 2.3411437 -0.89823024 2.3411437 0 0 Z " fill="#DDD1D0" transform="translate(236,209)"/>
<path d="M0 0 C0.66 0.99 1.32 1.98 2 3 C1.13776978 6.35311752 -0.59842045 8.91173735 -2.5 11.75 C-5.22714235 15.96540587 -6.2369048 20.07974441 -7 25 C-8.32 24.34 -9.64 23.68 -11 23 C-11.7009649 15.53861809 -10.82026415 9.94368615 -6 4 C-3.25 2.5625 -3.25 2.5625 -1 2 C-0.67 1.34 -0.34 0.68 0 0 Z " fill="#C05550" transform="translate(212,221)"/>
<path d="M0 0 C0.66 0 1.32 0 2 0 C2 0.66 2 1.32 2 2 C2.99 1.67 3.98 1.34 5 1 C5 1.99 5 2.98 5 4 C5.71929687 3.78730469 6.43859375 3.57460937 7.1796875 3.35546875 C10.65081718 2.9179718 12.08057686 3.65994615 15.125 5.3125 C16.39730469 5.98732422 16.39730469 5.98732422 17.6953125 6.67578125 C19.50464681 7.71538181 21.26373212 8.84248808 23 10 C22.195625 10.309375 21.39125 10.61875 20.5625 10.9375 C18.10919595 11.76335345 18.10919595 11.76335345 17 13 C11.51424994 13.96000626 8.35470976 11.69774265 3.953125 8.80078125 C1.66158865 6.68798473 0.89904073 4.96013943 0 2 C0 1.34 0 0.68 0 0 Z " fill="#C85553" transform="translate(268,223)"/>
<path d="M0 0 C0.33 1.32 0.66 2.64 1 4 C0.34 4 -0.32 4 -1 4 C-1 4.70125 -1 5.4025 -1 6.125 C-2.56964011 10.63771531 -5.86630621 12.78997899 -10 15 C-13.8125 15.625 -13.8125 15.625 -17 15 C-18.69921875 12.9609375 -18.69921875 12.9609375 -20 11 C-15.42082 8.38617612 -10.95490098 5.84039179 -6 4 C-3.44373253 2.83142059 -2.01070731 2.01070731 0 0 Z " fill="#C44948" transform="translate(279,146)"/>
<path d="M0 0 C0.66 0 1.32 0 2 0 C2 5.28 2 10.56 2 16 C0.02 16.99 0.02 16.99 -2 18 C-2.33 17.67 -2.66 17.34 -3 17 C-3.33 25.25 -3.66 33.5 -4 42 C-4.33 42 -4.66 42 -5 42 C-5 28.8 -5 15.6 -5 2 C-3.68 2 -2.36 2 -1 2 C-0.67 1.34 -0.34 0.68 0 0 Z " fill="#636969" transform="translate(294,346)"/>
<path d="M0 0 C1.32 0 2.64 0 4 0 C4 7.92 4 15.84 4 24 C2.35 24 0.7 24 -1 24 C-1.02887236 20.18751574 -1.04675492 16.3750593 -1.0625 12.5625 C-1.07087891 11.47388672 -1.07925781 10.38527344 -1.08789062 9.26367188 C-1.09111328 8.22919922 -1.09433594 7.19472656 -1.09765625 6.12890625 C-1.10289307 5.17056885 -1.10812988 4.21223145 -1.11352539 3.22485352 C-1 1 -1 1 0 0 Z " fill="#D17977" transform="translate(264,170)"/>
<path d="M0 0 C1.04671875 -0.02578125 2.0934375 -0.0515625 3.171875 -0.078125 C6.64680582 0.2922991 8.52022589 1.08640126 11.25 3.25 C11.25 4.24 11.25 5.23 11.25 6.25 C10.68796875 6.09660156 10.1259375 5.94320312 9.546875 5.78515625 C7.19161122 5.23639581 4.90451896 4.93502401 2.5 4.6875 C1.0975 4.543125 -0.305 4.39875 -1.75 4.25 C-1.75 7.55 -1.75 10.85 -1.75 14.25 C-2.41 12.93 -3.07 11.61 -3.75 10.25 C-5.56115956 12.06115956 -5.13199448 14.86278227 -5.3125 17.3125 C-5.39628906 18.41722656 -5.48007813 19.52195313 -5.56640625 20.66015625 C-5.62699219 21.51480469 -5.68757812 22.36945313 -5.75 23.25 C-6.08 23.25 -6.41 23.25 -6.75 23.25 C-6.77887512 19.60418313 -6.79675585 15.95839537 -6.8125 12.3125 C-6.82087891 11.27158203 -6.82925781 10.23066406 -6.83789062 9.15820312 C-6.84272461 7.67416992 -6.84272461 7.67416992 -6.84765625 6.16015625 C-6.85289307 5.24371338 -6.85812988 4.32727051 -6.86352539 3.38305664 C-6.63362006 -0.93669156 -3.68862348 0.05397986 0 0 Z " fill="#D07777" transform="translate(222.75,169.75)"/>
<path d="M0 0 C1.25159912 0.00523682 2.50319824 0.01047363 3.79272461 0.01586914 C4.78942421 0.01799156 4.78942421 0.01799156 5.80625916 0.02015686 C7.93590735 0.02577021 10.06545175 0.03832485 12.19506836 0.05102539 C13.63582205 0.05603868 15.07657739 0.06060188 16.51733398 0.06469727 C20.05577938 0.07574394 23.59416375 0.09301747 27.13256836 0.11352539 C27.13256836 0.44352539 27.13256836 0.77352539 27.13256836 1.11352539 C22.51256836 1.11352539 17.89256836 1.11352539 13.13256836 1.11352539 C13.46256836 1.77352539 13.79256836 2.43352539 14.13256836 3.11352539 C16.65990071 3.76907658 16.65990071 3.76907658 19.13256836 4.11352539 C19.13256836 4.44352539 19.13256836 4.77352539 19.13256836 5.11352539 C11.87256836 5.11352539 4.61256836 5.11352539 -2.86743164 5.11352539 C-3.19743164 3.79352539 -3.52743164 2.47352539 -3.86743164 1.11352539 C-2.86743164 0.11352539 -2.86743164 0.11352539 0 0 Z " fill="#C64343" transform="translate(233.867431640625,383.886474609375)"/>
<path d="M0 0 C5.61 0.33 11.22 0.66 17 1 C16 5 16 5 13.75 6.75 C10.69574156 8.13829929 9.29212518 8.64236589 6 8 C3.62254539 6.52958376 2.01379857 5.01379857 0 3 C0 2.01 0 1.02 0 0 Z " fill="#F6F5F1" transform="translate(242,283)"/>
<path d="M0 0 C6.27 0 12.54 0 19 0 C19 0.99 19 1.98 19 3 C16.36 3 13.72 3 11 3 C11 9.27 11 15.54 11 22 C8.47224649 18.20836973 8.77556965 15.19125969 8.875 10.8125 C8.88402344 10.06291016 8.89304687 9.31332031 8.90234375 8.54101562 C8.92587422 6.69387346 8.96174439 4.84689588 9 3 C6.03 3 3.06 3 0 3 C0 2.01 0 1.02 0 0 Z " fill="#CC5150" transform="translate(274,171)"/>
<path d="M0 0 C4.9430602 0.49430602 8.74976194 1.36890025 13 4 C14.25955231 7.77865693 13.48087189 9.03411786 12.0625 12.6875 C11.68222656 13.68136719 11.30195313 14.67523438 10.91015625 15.69921875 C10.60980469 16.45847656 10.30945313 17.21773437 10 18 C9.87625 17.360625 9.7525 16.72125 9.625 16.0625 C9.41875 15.381875 9.2125 14.70125 9 14 C8.34 13.67 7.68 13.34 7 13 C7.66 13 8.32 13 9 13 C9 10.69 9 8.38 9 6 C7.6078125 5.566875 7.6078125 5.566875 6.1875 5.125 C3 4 3 4 0 2 C0 1.34 0 0.68 0 0 Z " fill="#CB6462" transform="translate(228,201)"/>
<path d="M0 0 C0.33 0 0.66 0 1 0 C1 2.97 1 5.94 1 9 C3.64 8.67 6.28 8.34 9 8 C9.33 8.99 9.66 9.98 10 11 C11.65 11.33 13.3 11.66 15 12 C14.01 12.495 14.01 12.495 13 13 C13 13.66 13 14.32 13 15 C8.05 14.67 3.1 14.34 -2 14 C-1.67 13.01 -1.34 12.02 -1 11 C-0.77820215 9.10787263 -0.59385985 7.21115528 -0.4375 5.3125 C-0.35371094 4.31863281 -0.26992187 3.32476562 -0.18359375 2.30078125 C-0.12300781 1.54152344 -0.06242188 0.78226562 0 0 Z " fill="#B65052" transform="translate(193,118)"/>
<path d="M0 0 C0.99 0.33 1.98 0.66 3 1 C3.4171331 4.54563138 2.97671748 6.04323897 1.25 9.25 C-1 12 -1 12 -3.125 13 C-3.74375 13 -4.3625 13 -5 13 C-5.66 12.34 -6.32 11.68 -7 11 C-6.9375 8.5 -6.9375 8.5 -6 6 C-4.34795544 5.29788106 -2.68076231 4.63028587 -1 4 C-0.11306697 1.95894361 -0.11306697 1.95894361 0 0 Z " fill="#EB8D84" transform="translate(240,271)"/>
<path d="M0 0 C0.99 0 1.98 0 3 0 C3 13.2 3 26.4 3 40 C2.67 40 2.34 40 2 40 C1.67 31.75 1.34 23.5 1 15 C0.67 15 0.34 15 0 15 C0 10.05 0 5.1 0 0 Z " fill="#82888A" transform="translate(205,347)"/>
<path d="M0 0 C0.99 0.33 1.98 0.66 3 1 C4.10559488 6.25157567 4.54318537 11.65100508 4 17 C3.34 17.99 2.68 18.98 2 20 C1.34 20 0.68 20 0 20 C0 13.4 0 6.8 0 0 Z " fill="#C44A47" transform="translate(254,79)"/>
<path d="M0 0 C5.61 0 11.22 0 17 0 C17 1.32 17 2.64 17 4 C11.39 4 5.78 4 0 4 C0.66 3.67 1.32 3.34 2 3 C2 2.34 2 1.68 2 1 C1.34 0.67 0.68 0.34 0 0 Z " fill="#C94748" transform="translate(248,368)"/>
<path d="M0 0 C0.33 0.66 0.66 1.32 1 2 C2.65 2 4.3 2 6 2 C6.33 2.66 6.66 3.32 7 4 C7.66 4 8.32 4 9 4 C9.33 3.34 9.66 2.68 10 2 C10.33 2.99 10.66 3.98 11 5 C11.66 5 12.32 5 13 5 C13 4.01 13 3.02 13 2 C14.32 1.67 15.64 1.34 17 1 C16.67 1.99 16.34 2.98 16 4 C15.34 4 14.68 4 14 4 C13.67 4.99 13.34 5.98 13 7 C10.8125 8.375 10.8125 8.375 8 9 C3.80766646 7.49075993 1.35156852 5.78863816 -1 2 C-0.67 1.34 -0.34 0.68 0 0 Z " fill="#D5B294" transform="translate(240,352)"/>
<path d="M0 0 C0.99 0 1.98 0 3 0 C3 6.6 3 13.2 3 20 C2.01 20 1.02 20 0 20 C0 13.4 0 6.8 0 0 Z " fill="#D04E4D" transform="translate(242,171)"/>
<path d="M0 0 C5 2 5 2 10 4 C10 5.65 10 7.3 10 9 C3.6217765 9.36103152 3.6217765 9.36103152 1.0625 7.875 C-0.44484863 5.214973 -0.19986253 2.99793795 0 0 Z " fill="#62696A" transform="translate(226,341)"/>
<path d="M0 0 C0.99 0.33 1.98 0.66 3 1 C2.37946828 6.37794156 1.87574249 10.12425751 -2 14 C-2.33 14.99 -2.66 15.98 -3 17 C-3.66 17 -4.32 17 -5 17 C-4.06898067 10.84431924 -3.20578207 5.39154257 0 0 Z " fill="#C86C6D" transform="translate(253,117)"/>
<path d="M0 0 C0.33 0.66 0.66 1.32 1 2 C1.99 2.33 2.98 2.66 4 3 C-4.44175384 10.50378119 -4.44175384 10.50378119 -9.0625 10.4375 C-10.031875 10.293125 -11.00125 10.14875 -12 10 C-12.33 9.34 -12.66 8.68 -13 8 C-11.68 8 -10.36 8 -9 8 C-7.35405861 6.60411246 -7.35405861 6.60411246 -6 5 C-5.34 4.67 -4.68 4.34 -4 4 C-4 3.34 -4 2.68 -4 2 C-2.68 1.34 -1.36 0.68 0 0 Z " fill="#CA5A58" transform="translate(274,151)"/>
<path d="M0 0 C2.97 0.495 2.97 0.495 6 1 C6.33 1.99 6.66 2.98 7 4 C6.34 4 5.68 4 5 4 C4.34 6.31 3.68 8.62 3 11 C2.01 10.67 1.02 10.34 0 10 C0 8.35 0 6.7 0 5 C-0.66 4.67 -1.32 4.34 -2 4 C-1.34 2.68 -0.68 1.36 0 0 Z " fill="#977C65" transform="translate(258,265)"/>
<path d="M0 0 C0.33 0 0.66 0 1 0 C1 3.3 1 6.6 1 10 C3.31 10 5.62 10 8 10 C8 10.33 8 10.66 8 11 C6.02 11.33 4.04 11.66 2 12 C1.67 14.64 1.34 17.28 1 20 C0.01 20 -0.98 20 -2 20 C-2.3690205 6.3667426 -2.3690205 6.3667426 0 0 Z " fill="#CD5454" transform="translate(219,174)"/>
<path d="M0 0 C2.00720923 0.28674418 4.0085944 0.61866701 6 1 C6.33 1.99 6.66 2.98 7 4 C7.66 4 8.32 4 9 4 C9.66 2.68 10.32 1.36 11 0 C12.32 1.32 13.64 2.64 15 4 C14.01 4.33 13.02 4.66 12 5 C12.33 6.32 12.66 7.64 13 9 C9.41453004 9 8.34738441 8.12884133 5.4375 6.125 C4.65246094 5.59132812 3.86742187 5.05765625 3.05859375 4.5078125 C1 3 1 3 -1 1 C-0.67 0.67 -0.34 0.34 0 0 Z " fill="#D06868" transform="translate(209,135)"/>
<path d="M0 0 C0.66 0.99 1.32 1.98 2 3 C1.3125 5.625 1.3125 5.625 0 8 C-0.99 8.33 -1.98 8.66 -3 9 C-3.33 9.66 -3.66 10.32 -4 11 C-4.66 11 -5.32 11 -6 11 C-6 10.01 -6 9.02 -6 8 C-7.485 10.475 -7.485 10.475 -9 13 C-9.33 12.34 -9.66 11.68 -10 11 C-6.96992481 4.47368421 -6.96992481 4.47368421 -3.3125 2.6875 C-2.549375 2.460625 -1.78625 2.23375 -1 2 C-0.67 1.34 -0.34 0.68 0 0 Z " fill="#C04B47" transform="translate(212,221)"/>
<path d="M0 0 C0.99 0.33 1.98 0.66 3 1 C3.33 1.99 3.66 2.98 4 4 C4.66 4.33 5.32 4.66 6 5 C6.6328125 6.84765625 6.6328125 6.84765625 7.125 9.0625 C7.29257813 9.79597656 7.46015625 10.52945313 7.6328125 11.28515625 C7.75398437 11.85105469 7.87515625 12.41695312 8 13 C7.01 13.33 6.02 13.66 5 14 C0.93734237 9.72900096 -0.75988223 7.12300326 -1 1 C-0.67 0.67 -0.34 0.34 0 0 Z " fill="#C74B49" transform="translate(221,138)"/>
<path d="M0 0 C0.66 0 1.32 0 2 0 C1.835 0.66 1.67 1.32 1.5 2 C1.07142993 4.5714204 1.02180265 6.61225715 1.125 9.1875 C1.08375 10.445625 1.0425 11.70375 1 13 C0.01 13.66 -0.98 14.32 -2 15 C-2 14.01 -2 13.02 -2 12 C-1.34 12 -0.68 12 0 12 C-0.33 11.34 -0.66 10.68 -1 10 C-4.08510827 11.19976433 -7.05047042 12.50002556 -10 14 C-9.61328125 13.57589844 -9.2265625 13.15179688 -8.828125 12.71484375 C-5.2605903 8.69695194 -2.51826571 4.74596229 0 0 Z " fill="#C95958" transform="translate(280,138)"/>
<path d="M0 0 C0.33 0 0.66 0 1 0 C1 1.65 1 3.3 1 5 C-0.93370231 6.00732399 -2.87210306 7.00563288 -4.8125 8 C-6.43091797 8.8353125 -6.43091797 8.8353125 -8.08203125 9.6875 C-11 11 -11 11 -14 11 C-14.33 10.34 -14.66 9.68 -15 9 C-14.00097656 8.51789063 -13.00195312 8.03578125 -11.97265625 7.5390625 C-10.66911549 6.90135911 -9.36573849 6.26332089 -8.0625 5.625 C-7.40314453 5.30789062 -6.74378906 4.99078125 -6.06445312 4.6640625 C-2.38695193 3.04522631 -2.38695193 3.04522631 0 0 Z " fill="#D5C2C1" transform="translate(236,209)"/>
<path d="M0 0 C4.63720719 3.27530896 8.68542782 6.30435607 12 11 C11.34 11.66 10.68 12.32 10 13 C9.690625 12.21625 9.38125 11.4325 9.0625 10.625 C6.34929413 7.17182889 4.16276479 7.03928233 -0.0390625 6.359375 C-2 6 -2 6 -3 5 C-3.66 5 -4.32 5 -5 5 C-4.67 4.01 -4.34 3.02 -4 2 C-2.68 2 -1.36 2 0 2 C0 1.34 0 0.68 0 0 Z " fill="#DBC9B6" transform="translate(247,342)"/>
<path d="M0 0 C1.69141656 0.08963062 3.37959602 0.24577676 5.0625 0.4375 C6.44115234 0.59025391 6.44115234 0.59025391 7.84765625 0.74609375 C8.55792969 0.82988281 9.26820313 0.91367187 10 1 C10 1.66 10 2.32 10 3 C13.96 3.33 17.92 3.66 22 4 C22 4.33 22 4.66 22 5 C14.74 5 7.48 5 0 5 C-0.33 3.68 -0.66 2.36 -1 1 C-0.67 0.67 -0.34 0.34 0 0 Z " fill="#CA5555" transform="translate(231,384)"/>
<path d="M0 0 C0 0.99 0 1.98 0 3 C-0.639375 3.12375 -1.27875 3.2475 -1.9375 3.375 C-2.618125 3.58125 -3.29875 3.7875 -4 4 C-4.33 4.66 -4.66 5.32 -5 6 C-3.68 5.34 -2.36 4.68 -1 4 C-0.67 5.32 -0.34 6.64 0 8 C-2.97 7.505 -2.97 7.505 -6 7 C-6.33 8.32 -6.66 9.64 -7 11 C-7.66 11 -8.32 11 -9 11 C-9.66 10.01 -10.32 9.02 -11 8 C-9.208612 2.62583601 -5.57736488 0 0 0 Z " fill="#CFAF8F" transform="translate(247,341)"/>
<path d="M0 0 C0.99 0 1.98 0 3 0 C4.62950412 4.12168689 5.26264601 6.70700357 4 11 C2.0625 10.625 2.0625 10.625 0 10 C-1.36952673 7.26094655 -1.12621361 5.02912668 -1 2 C-0.67 1.34 -0.34 0.68 0 0 Z " fill="#C65255" transform="translate(259,206)"/>
<path d="M0 0 C-0.33 2.31 -0.66 4.62 -1 7 C-3.64 7.33 -6.28 7.66 -9 8 C-9 6.35 -9 4.7 -9 3 C-2.25 0 -2.25 0 0 0 Z " fill="#454C4E" transform="translate(271,342)"/>
<path d="M0 0 C1.65 0 3.3 0 5 0 C5 1.65 5 3.3 5 5 C5.66 5 6.32 5 7 5 C6.67 6.32 6.34 7.64 6 9 C3.13275314 8.42655063 2.1385485 8.1385485 0 6 C-0.125 2.875 -0.125 2.875 0 0 Z " fill="#CF6563" transform="translate(192,174)"/>
<path d="M0 0 C1.98 0 3.96 0 6 0 C6 1.98 6 3.96 6 6 C3.625 6.625 3.625 6.625 1 7 C0.34 6.34 -0.32 5.68 -1 5 C-0.625 2.375 -0.625 2.375 0 0 Z " fill="#EA8D7E" transform="translate(262,277)"/>
<path d="M0 0 C1.76923828 0.01353516 1.76923828 0.01353516 3.57421875 0.02734375 C4.47785156 0.03894531 5.38148438 0.05054688 6.3125 0.0625 C6.3125 1.0525 6.3125 2.0425 6.3125 3.0625 C4.20861431 3.11652274 2.10433286 3.15530256 0 3.1875 C-1.75763672 3.22230469 -1.75763672 3.22230469 -3.55078125 3.2578125 C-6.6875 3.0625 -6.6875 3.0625 -9.6875 1.0625 C-6.26517028 -0.07827657 -3.60076783 -0.03565117 0 0 Z " fill="#CC5B58" transform="translate(252.6875,190.9375)"/>
<path d="M0 0 C1.22589844 0.29197266 1.22589844 0.29197266 2.4765625 0.58984375 C3.41628906 0.82380859 3.41628906 0.82380859 4.375 1.0625 C3.385 1.3925 2.395 1.7225 1.375 2.0625 C1.375 2.7225 1.375 3.3825 1.375 4.0625 C-2.375 5.1875 -2.375 5.1875 -4.625 4.0625 C-4.955 4.7225 -5.285 5.3825 -5.625 6.0625 C-5.955 4.0825 -6.285 2.1025 -6.625 0.0625 C-3.99249612 -1.25375194 -2.82320944 -0.68563658 0 0 Z " fill="#D06362" transform="translate(269.625,202.9375)"/>
<path d="M0 0 C0 2.64 0 5.28 0 8 C-1.65 7.67 -3.3 7.34 -5 7 C-5.66 5.02 -6.32 3.04 -7 1 C-1.125 0 -1.125 0 0 0 Z " fill="#494F4E" transform="translate(276,263)"/>
<path d="M0 0 C-0.66 0.66 -1.32 1.32 -2 2 C-2.99 2 -3.98 2 -5 2 C-6.68798827 3.43750191 -6.68798827 3.43750191 -8 5 C-8.66 4.67 -9.32 4.34 -10 4 C-10.33 5.32 -10.66 6.64 -11 8 C-11.33 7.01 -11.66 6.02 -12 5 C-9.04109589 -0.47945205 -9.04109589 -0.47945205 -6 -2 C-3.52710538 -2 -2.09394158 -1.27132167 0 0 Z " fill="#545B5E" transform="translate(219,322)"/>
<path d="M0 0 C0.33 1.32 0.66 2.64 1 4 C-1.31 5.98 -3.62 7.96 -6 10 C-6.66 9.01 -7.32 8.02 -8 7 C-5.61042731 3.75700849 -3.7952131 1.49097658 0 0 Z " fill="#505859" transform="translate(196,148)"/>
<path d="M0 0 C0.99 0.33 1.98 0.66 3 1 C3 1.66 3 2.32 3 3 C4.98 3 6.96 3 9 3 C9 3.99 9 4.98 9 6 C2.9453125 6.1953125 2.9453125 6.1953125 1 6 C0.34 5.34 -0.32 4.68 -1 4 C-0.625 1.875 -0.625 1.875 0 0 Z " fill="#C76264" transform="translate(193,188)"/>
<path d="M0 0 C0.66 1.32 1.32 2.64 2 4 C-1.3 4 -4.6 4 -8 4 C-8 6.31 -8 8.62 -8 11 C-8.33 11 -8.66 11 -9 11 C-9.48676056 3.57690141 -9.48676056 3.57690141 -7.3125 1 C-4.6880612 -0.13489245 -2.83089822 -0.23590819 0 0 Z " fill="#D17575" transform="translate(229,183)"/>
<path d="M0 0 C1.89510699 -0.08160748 3.79124504 -0.13946459 5.6875 -0.1875 C6.74324219 -0.22230469 7.79898438 -0.25710937 8.88671875 -0.29296875 C12.40070518 0.03770751 14.24843792 0.8099812 17 3 C17 3.99 17 4.98 17 6 C14.61435923 5.42415568 12.33317216 4.77772405 10 4 C10 3.34 10 2.68 10 2 C6.7 1.67 3.4 1.34 0 1 C0 0.67 0 0.34 0 0 Z " fill="#D08182" transform="translate(217,170)"/>
<path d="M0 0 C1.125 3.75 1.125 3.75 0 6 C0.66 6 1.32 6 2 6 C2.33 4.35 2.66 2.7 3 1 C3.66 1 4.32 1 5 1 C4.01 4.3 3.02 7.6 2 11 C1.67 9.68 1.34 8.36 1 7 C0.34 7 -0.32 7 -1 7 C-1.33 8.32 -1.66 9.64 -2 11 C-3 9 -3 9 -2.44140625 6.8359375 C-2.15136719 6.02382812 -1.86132812 5.21171875 -1.5625 4.375 C-1.27503906 3.55773437 -0.98757812 2.74046875 -0.69140625 1.8984375 C-0.46324219 1.27195313 -0.23507813 0.64546875 0 0 Z " fill="#CD7C7A" transform="translate(248,128)"/>
<path d="M0 0 C4.49295211 4.69717721 5.11389688 11.31144393 5.125 17.5625 C5.08375 18.696875 5.0425 19.83125 5 21 C4.67 21 4.34 21 4 21 C3.67 17.04 3.34 13.08 3 9 C2.01 8.67 1.02 8.34 0 8 C0 5.36 0 2.72 0 0 Z " fill="#D18180" transform="translate(254,71)"/>
<path d="M0 0 C0.66 0.33 1.32 0.66 2 1 C1.67 3.31 1.34 5.62 1 8 C-0.32 8.33 -1.64 8.66 -3 9 C-3.36923077 3.46153846 -3.36923077 3.46153846 -1.5 1.125 C-1.005 0.75375 -0.51 0.3825 0 0 Z " fill="#2F3635" transform="translate(229,262)"/>
<path d="M0 0 C0.66 0 1.32 0 2 0 C2 0.66 2 1.32 2 2 C2.99 1.67 3.98 1.34 5 1 C5 1.99 5 2.98 5 4 C5.99 3.67 6.98 3.34 8 3 C8.33 4.32 8.66 5.64 9 7 C7.3125 7.8125 7.3125 7.8125 5 8 C2.25 5.75 2.25 5.75 0 3 C0 2.01 0 1.02 0 0 Z " fill="#C34041" transform="translate(268,223)"/>
<path d="M0 0 C2 2 2 2 2.3125 4.5 C2.1578125 5.7375 2.1578125 5.7375 2 7 C1.01 7.66 0.02 8.32 -1 9 C-1 8.34 -1 7.68 -1 7 C-1.66 6.67 -2.32 6.34 -3 6 C-1.68 6 -0.36 6 1 6 C0.34 5.01 -0.32 4.02 -1 3 C-1.33 3.66 -1.66 4.32 -2 5 C-2.66 4.67 -3.32 4.34 -4 4 C-4 3.34 -4 2.68 -4 2 C-4.99 1.67 -5.98 1.34 -7 1 C-4.48718205 -0.25640898 -2.78302919 -0.20872719 0 0 Z " fill="#CD6F6D" transform="translate(496,169)"/>
<path d="M0 0 C0.33 0 0.66 0 1 0 C1.33 3.96 1.66 7.92 2 12 C-1.93670488 13.31223496 -4.12488144 12.24296256 -8 11 C-4.25 9.875 -4.25 9.875 -2 11 C-2 10.01 -2 9.02 -2 8 C-1.34 8 -0.68 8 0 8 C0 5.36 0 2.72 0 0 Z " fill="#D07C7C" transform="translate(237,105)"/>
<path d="M0 0 C0.99 0.33 1.98 0.66 3 1 C3.26218749 4.14624993 3.24754367 5.61837017 1.5 8.3125 C0.7575 9.1478125 0.7575 9.1478125 0 10 C-0.33 9.01 -0.66 8.02 -1 7 C-3.00016466 5.79117904 -3.00016466 5.79117904 -5 5 C-3.68 4.67 -2.36 4.34 -1 4 C-0.67 2.68 -0.34 1.36 0 0 Z " fill="#9A7765" transform="translate(240,271)"/>
<path d="M0 0 C0.66 0 1.32 0 2 0 C2.125 6.75 2.125 6.75 1 9 C0.34 9 -0.32 9 -1 9 C-1 9.66 -1 10.32 -1 11 C-1.66 11 -2.32 11 -3 11 C-2.53199289 6.94393835 -2.12046792 3.53411321 0 0 Z " fill="#C34E50" transform="translate(247,135)"/>
<path d="M0 0 C0 0.99 0 1.98 0 3 C-0.66 3 -1.32 3 -2 3 C-2.33 3.99 -2.66 4.98 -3 6 C-5.0625 6.6875 -5.0625 6.6875 -7 7 C-7.66 5.68 -8.32 4.36 -9 3 C-8.34 3 -7.68 3 -7 3 C-6.67 2.34 -6.34 1.68 -6 1 C-5.67 1.99 -5.34 2.98 -5 4 C-4.34 4 -3.68 4 -3 4 C-3 3.01 -3 2.02 -3 1 C-2.01 0.67 -1.02 0.34 0 0 Z " fill="#D7A97F" transform="translate(256,353)"/>
<path d="M0 0 C1.32 0.66 2.64 1.32 4 2 C4 3.32 4 4.64 4 6 C2.68 6.33 1.36 6.66 0 7 C-0.93423645 3.98968256 -1.04449911 3.13349732 0 0 Z " fill="#475151" transform="translate(289,339)"/>
<path d="M0 0 C1.485 0.99 1.485 0.99 3 2 C3.66 1.67 4.32 1.34 5 1 C5 1.99 5 2.98 5 4 C5.99 4.66 6.98 5.32 8 6 C5.69 6.33 3.38 6.66 1 7 C0.34 6.01 -0.32 5.02 -1 4 C-0.34 4 0.32 4 1 4 C0.67 2.68 0.34 1.36 0 0 Z " fill="#D5BCA5" transform="translate(257,345)"/>
<path d="M0 0 C6.625 0.75 6.625 0.75 10 3 C9.01 3 8.02 3 7 3 C7 3.66 7 4.32 7 5 C4.0625 4.1875 4.0625 4.1875 1 3 C0.67 2.01 0.34 1.02 0 0 Z " fill="#CB7271" transform="translate(228,201)"/>
<path d="M0 0 C0 1.65 0 3.3 0 5 C-1.65 5 -3.3 5 -5 5 C-5.33 3.68 -5.66 2.36 -6 1 C-3 0 -3 0 0 0 Z " fill="#434B4C" transform="translate(236,345)"/>
<path d="M0 0 C0.185625 0.9590625 0.185625 0.9590625 0.375 1.9375 C0.684375 2.9584375 0.684375 2.9584375 1 4 C1.66 4.33 2.32 4.66 3 5 C2.67 5.99 2.34 6.98 2 8 C2.99 8.33 3.98 8.66 5 9 C4.67 9.99 4.34 10.98 4 12 C0.85014682 8.43569245 -1.5140084 5.59306496 -3 1 C-2.01 0.67 -1.02 0.34 0 0 Z " fill="#E5C79B" transform="translate(231,279)"/>
<path d="M0 0 C-1.4859916 4.59306496 -3.85014682 7.43569245 -7 11 C-7.67578125 9.234375 -7.67578125 9.234375 -8 7 C-6.85546875 5.078125 -6.85546875 5.078125 -5.1875 3.25 C-4.64480469 2.63640625 -4.10210937 2.0228125 -3.54296875 1.390625 C-2 0 -2 0 0 0 Z " fill="#D26362" transform="translate(278,137)"/>
<path d="M0 0 C2.08326131 -0.02709444 4.16662441 -0.04643873 6.25 -0.0625 C7.41015625 -0.07410156 8.5703125 -0.08570313 9.765625 -0.09765625 C12.40977128 -0.01782092 14.49826091 0.21356222 17 1 C17 1.99 17 2.98 17 4 C16.05125 3.690625 15.1025 3.38125 14.125 3.0625 C9.49061575 1.72071729 4.79447959 1.36657993 0 1 C0 0.67 0 0.34 0 0 Z " fill="#CF7276" transform="translate(191,132)"/>
<path d="M0 0 C7.75 -0.125 7.75 -0.125 10 1 C10 1.99 10 2.98 10 4 C7.36 4.33 4.72 4.66 2 5 C3.32 4.67 4.64 4.34 6 4 C6 3.01 6 2.02 6 1 C4.02 1 2.04 1 0 1 C0 0.67 0 0.34 0 0 Z " fill="#CE8787" transform="translate(196,190)"/>
<path d="M0 0 C1.98 0 3.96 0 6 0 C6.66 1.98 7.32 3.96 8 6 C7.01 6.33 6.02 6.66 5 7 C3.35 4.69 1.7 2.38 0 0 Z " fill="#C95455" transform="translate(221,145)"/>
<path d="M0 0 C0.99 0.33 1.98 0.66 3 1 C3 1.99 3 2.98 3 4 C1.68 4 0.36 4 -1 4 C-1.33 7.63 -1.66 11.26 -2 15 C-2.33 15 -2.66 15 -3 15 C-3.35050464 9.158256 -3.16727335 5.1468192 0 0 Z " fill="#D07C7C" transform="translate(452,142)"/>
<path d="M0 0 C0 0.99 0 1.98 0 3 C-3.63 3 -7.26 3 -11 3 C-6.577168 -0.317124 -5.28089024 -0.30466674 0 0 Z " fill="#CC4142" transform="translate(300,46)"/>
<path d="M0 0 C2.375 -0.1875 2.375 -0.1875 5 0 C5.66 0.99 6.32 1.98 7 3 C2.545 3.495 2.545 3.495 -2 4 C-1.34 2.68 -0.68 1.36 0 0 Z " fill="#5F5A53" transform="translate(238,265)"/>
<path d="M0 0 C0.66 0.33 1.32 0.66 2 1 C1.67 2.32 1.34 3.64 1 5 C-1.31 5 -3.62 5 -6 5 C-6.33 4.34 -6.66 3.68 -7 3 C-5.68 3 -4.36 3 -3 3 C-1.2488427 1.5833253 -1.2488427 1.5833253 0 0 Z " fill="#CC6361" transform="translate(268,156)"/>
<path d="M0 0 C0.99 0.33 1.98 0.66 3 1 C3 1.99 3 2.98 3 4 C2.34 4.66 1.68 5.32 1 6 C0.67 6.99 0.34 7.98 0 9 C-0.66 9 -1.32 9 -2 9 C-1.125 1.125 -1.125 1.125 0 0 Z " fill="#C34C4E" transform="translate(250,125)"/>
<path d="M0 0 C0.33 0.66 0.66 1.32 1 2 C0.38125 2.7425 -0.2375 3.485 -0.875 4.25 C-3.00623933 6.80438808 -3.00623933 6.80438808 -4.0625 9.25 C-5 11 -5 11 -8 12 C-6.59023295 8.96147295 -4.91129772 6.4060405 -2.875 3.75 C-2.06675781 2.69039063 -2.06675781 2.69039063 -1.2421875 1.609375 C-0.83226563 1.07828125 -0.42234375 0.5471875 0 0 Z " fill="#636A6E" transform="translate(73,104)"/>
<path d="M0 0 C4.29 0.33 8.58 0.66 13 1 C13 1.33 13 1.66 13 2 C11.4221875 2.2165625 11.4221875 2.2165625 9.8125 2.4375 C6.84539451 2.87526966 3.93205634 3.37804866 1 4 C1.66 3.34 2.32 2.68 3 2 C2.01 1.34 1.02 0.68 0 0 Z " fill="#D47979" transform="translate(287,44)"/>
<path d="M0 0 C3.73884332 2.65654657 5.64978174 4.58110387 7 9 C5.125 8.75 5.125 8.75 3 8 C1.875 6.0625 1.875 6.0625 1 4 C0.34 3.34 -0.32 2.68 -1 2 C-0.67 1.34 -0.34 0.68 0 0 Z " fill="#D07271" transform="translate(224,139)"/>
<path d="M0 0 C2.00720923 0.28674418 4.0085944 0.61866701 6 1 C6.33 2.32 6.66 3.64 7 5 C1.25 3.25 1.25 3.25 -1 1 C-0.67 0.67 -0.34 0.34 0 0 Z " fill="#CF5A5E" transform="translate(209,135)"/>
<path d="M0 0 C0.33 0.66 0.66 1.32 1 2 C3.02463255 2.65213292 3.02463255 2.65213292 5 3 C4.01 5.31 3.02 7.62 2 10 C1.67 10 1.34 10 1 10 C0.67 6.7 0.34 3.4 0 0 Z " fill="#CA7472" transform="translate(244,104)"/>
<path d="M0 0 C1.14926266 0.95421808 2.29430541 1.91352045 3.4375 2.875 C4.07558594 3.40867187 4.71367187 3.94234375 5.37109375 4.4921875 C7 6 7 6 8 8 C6.02 7.34 4.04 6.68 2 6 C2 5.34 2 4.68 2 4 C1.34 3.67 0.68 3.34 0 3 C0 2.01 0 1.02 0 0 Z " fill="#D27E7C" transform="translate(398,92)"/>
<path d="M0 0 C4.875 3.625 4.875 3.625 6 7 C1.125 6.125 1.125 6.125 0 5 C-0.04063832 3.33382885 -0.042721 1.66611905 0 0 Z " fill="#CE6B69" transform="translate(242,55)"/>
<path d="M0 0 C0 0.33 0 0.66 0 1 C-5.39460953 3.27141454 -10.26157749 3.20413361 -16 3 C-16 2.67 -16 2.34 -16 2 C-10.54538831 0.61470179 -5.63281599 -0.2396943 0 0 Z " fill="#676C70" transform="translate(186,45)"/>
<path d="M0 0 C0.99 0 1.98 0 3 0 C2.67 0.53625 2.34 1.0725 2 1.625 C0.77300796 4.5391061 0.85766714 6.86867708 1 10 C0.34 10 -0.32 10 -1 10 C-2.23076923 4.58461538 -2.23076923 4.58461538 -1.0625 1.625 C-0.5365625 0.820625 -0.5365625 0.820625 0 0 Z " fill="#5B6364" transform="translate(79,20)"/>
<path d="M0 0 C2.5 1.3125 2.5 1.3125 5 3 C5 3.99 5 4.98 5 6 C4.01 6 3.02 6 2 6 C1.67 6.66 1.34 7.32 1 8 C0.67 5.36 0.34 2.72 0 0 Z " fill="#D29960" transform="translate(251,348)"/>
<path d="M0 0 C2.70931419 0.15481795 4.46584039 0.48172081 6.4453125 2.40234375 C7.67679642 3.89771708 8.8429837 5.4462924 10 7 C9.34 7.66 8.68 8.32 8 9 C7.608125 8.2575 7.21625 7.515 6.8125 6.75 C4.86961158 3.80216929 2.83531533 2.06901389 0 0 Z " fill="#DCD0C1" transform="translate(249,346)"/>
<path d="M0 0 C-0.5625 1.875 -0.5625 1.875 -2 4 C-5.625 5.25 -5.625 5.25 -9 6 C-3.15384615 0 -3.15384615 0 0 0 Z " fill="#CF6B69" transform="translate(224,210)"/>
<path d="M0 0 C2.12046792 3.53411321 2.53199289 6.94393835 3 11 C2.67 10.34 2.34 9.68 2 9 C1.34 9 0.68 9 0 9 C-1.125 3.375 -1.125 3.375 0 0 Z " fill="#CE7271" transform="translate(233,87)"/>
<path d="M0 0 C0.33 1.32 0.66 2.64 1 4 C0.34 4 -0.32 4 -1 4 C-0.67 4.99 -0.34 5.98 0 7 C-0.99 7.33 -1.98 7.66 -3 8 C-2.74438677 5.6568787 -2.40729228 3.32156597 -2 1 C-1.34 0.67 -0.68 0.34 0 0 Z " fill="#565E60" transform="translate(277,322)"/>
<path d="M0 0 C3.45925163 1.2491742 6.14693203 2.67527795 9 5 C6 6 6 6 2.8125 4.5625 C1.884375 4.046875 0.95625 3.53125 0 3 C0 2.01 0 1.02 0 0 Z " fill="#CB696A" transform="translate(276,226)"/>
<path d="M0 0 C3.34373475 0.55728913 6.03312999 1.35173889 9 3 C8.67 3.99 8.34 4.98 8 6 C4.08597051 4.73058503 2.20927127 3.48832306 0 0 Z " fill="#D06566" transform="translate(269,228)"/>
<path d="M0 0 C1.32 0.33 2.64 0.66 4 1 C4.33 2.65 4.66 4.3 5 6 C4.01 6 3.02 6 2 6 C1.34 4.02 0.68 2.04 0 0 Z " fill="#C84C4E" transform="translate(230,174)"/>
<path d="M0 0 C0.99 0.33 1.98 0.66 3 1 C2.43628586 4.26954202 1.50037734 5.82575883 -1 8 C-0.67 5.36 -0.34 2.72 0 0 Z " fill="#CA4344" transform="translate(451,146)"/>
<path d="M0 0 C2.64 0 5.28 0 8 0 C8 0.33 8 0.66 8 1 C5.69 1 3.38 1 1 1 C0.67 2.98 0.34 4.96 0 7 C-0.66 6.01 -1.32 5.02 -2 4 C-1.34 2.68 -0.68 1.36 0 0 Z " fill="#D7AE84" transform="translate(245,260)"/>
<path d="M0 0 C1.98 0.99 1.98 0.99 4 2 C3.34 4.64 2.68 7.28 2 10 C1.16550811 6.66203244 0.53980347 3.39305036 0 0 Z " fill="#CF726F" transform="translate(238,204)"/>
<path d="M0 0 C0.66 0 1.32 0 2 0 C1.67 2.31 1.34 4.62 1 7 C0.01 6.67 -0.98 6.34 -2 6 C-2 5.01 -2 4.02 -2 3 C-1.34 3 -0.68 3 0 3 C0 2.01 0 1.02 0 0 Z " fill="#C8504E" transform="translate(242,150)"/>
<path d="M0 0 C0.99 0 1.98 0 3 0 C3 1.98 3 3.96 3 6 C2.67 5.01 2.34 4.02 2 3 C1.34 3 0.68 3 0 3 C0 3.99 0 4.98 0 6 C-0.66 6 -1.32 6 -2 6 C-1.34 4.02 -0.68 2.04 0 0 Z " fill="#CE6867" transform="translate(242,147)"/>
<path d="M0 0 C3.465 1.98 3.465 1.98 7 4 C7 4.99 7 5.98 7 7 C6.67 6.34 6.34 5.68 6 5 C3.47266765 4.34444881 3.47266765 4.34444881 1 4 C0.67 2.68 0.34 1.36 0 0 Z " fill="#D26B6B" transform="translate(210,140)"/>
<path d="M0 0 C1.65 0.33 3.3 0.66 5 1 C5.33 2.32 5.66 3.64 6 5 C3.49642139 4.1654738 1.33214148 3.20628008 -1 2 C-0.67 1.34 -0.34 0.68 0 0 Z " fill="#CB5353" transform="translate(203,127)"/>
<path d="M0 0 C0.99 0 1.98 0 3 0 C1.60667426 3.36720387 0.0210714 4.9859524 -3 7 C-2.38722388 4.03824877 -1.74627478 2.61941217 0 0 Z " fill="#CC5E5D" transform="translate(249,107)"/>
<path d="M0 0 C2.97 0.495 2.97 0.495 6 1 C6.33 1.99 6.66 2.98 7 4 C4.36 3.67 1.72 3.34 -1 3 C-0.67 2.01 -0.34 1.02 0 0 Z " fill="#56524F" transform="translate(258,265)"/>
<path d="M0 0 C0.33 0 0.66 0 1 0 C0.67 2.31 0.34 4.62 0 7 C-1.32 7.33 -2.64 7.66 -4 8 C-4 7.01 -4 6.02 -4 5 C-3.01 5 -2.02 5 -1 5 C-0.67 3.35 -0.34 1.7 0 0 Z " fill="#CC8484" transform="translate(232,150)"/>
<path d="M0 0 C-0.33 1.65 -0.66 3.3 -1 5 C-1.99 5.33 -2.98 5.66 -4 6 C-4.33 5.01 -4.66 4.02 -5 3 C-2.25 0 -2.25 0 0 0 Z " fill="#484F50" transform="translate(193,152)"/>
<path d="M0 0 C0.33 0.66 0.66 1.32 1 2 C2.32 2 3.64 2 5 2 C5 3.65 5 5.3 5 7 C2 6 2 6 0 3 C0 2.01 0 1.02 0 0 Z " fill="#C34744" transform="translate(214,133)"/>
<path d="M0 0 C1.98 0 3.96 0 6 0 C6 1.32 6 2.64 6 4 C4.02 3.34 2.04 2.68 0 2 C0 1.34 0 0.68 0 0 Z " fill="#D8AB83" transform="translate(249,343)"/>
<path d="M0 0 C0.66 0.66 1.32 1.32 2 2 C1.96712417 4.72869407 1.43602229 7.2966618 1 10 C0.67 10 0.34 10 0 10 C-0.19412181 8.52168779 -0.38012131 7.04230684 -0.5625 5.5625 C-0.66691406 4.73878906 -0.77132813 3.91507812 -0.87890625 3.06640625 C-0.91886719 2.38449219 -0.95882813 1.70257813 -1 1 C-0.67 0.67 -0.34 0.34 0 0 Z " fill="#C96565" transform="translate(313,322)"/>
<path d="M0 0 C1.32 0.66 2.64 1.32 4 2 C1.525 3.485 1.525 3.485 -1 5 C-1.66 4.01 -2.32 3.02 -3 2 C-2.01 1.34 -1.02 0.68 0 0 Z " fill="#DBC8C6" transform="translate(224,216)"/>
<path d="M0 0 C0.99 0.33 1.98 0.66 3 1 C3.8125 2.8125 3.8125 2.8125 4 5 C3.34 6.32 2.68 7.64 2 9 C1.34 6.03 0.68 3.06 0 0 Z " fill="#D06C6E" transform="translate(207,87)"/>
<path d="M0 0 C2.475 0.99 2.475 0.99 5 2 C4.01 2.99 3.02 3.98 2 5 C1.01 4.67 0.02 4.34 -1 4 C-0.67 2.68 -0.34 1.36 0 0 Z " fill="#CC5657" transform="translate(381,79)"/>
<path d="" fill="#EFEFF0" transform="translate(0,0)"/>
<path d="" fill="#CDCBC6" transform="translate(0,0)"/>
<path d="" fill="#EFECED" transform="translate(0,0)"/>
</svg>
